<?xml version="1.0" encoding="UTF-8"?>
<svg width="1200px" height="630px" viewBox="0 0 1200 630" version="1.1" xmlns="http://www.w3.org/2000/svg" xmlns:xlink="http://www.w3.org/1999/xlink">
    <title>svg</title>
    <defs>
        <rect id="path-1" x="5.04823222" y="9.4403294" width="1086.96839" height="588" rx="28"></rect>
        <filter x="-1.6%" y="-2.6%" width="103.1%" height="105.8%" filterUnits="objectBoundingBox" id="filter-3">
            <feMorphology radius="10" operator="dilate" in="SourceAlpha" result="shadowSpreadOuter1"></feMorphology>
            <feOffset dx="0" dy="2" in="shadowSpreadOuter1" result="shadowOffsetOuter1"></feOffset>
            <feGaussianBlur stdDeviation="2" in="shadowOffsetOuter1" result="shadowBlurOuter1"></feGaussianBlur>
            <feComposite in="shadowBlurOuter1" in2="SourceAlpha" operator="out" result="shadowBlurOuter1"></feComposite>
            <feColorMatrix values="0 0 0 0 0   0 0 0 0 0   0 0 0 0 0  0 0 0 0.5 0" type="matrix" in="shadowBlurOuter1"></feColorMatrix>
        </filter>
        <filter x="-3.6%" y="-11.0%" width="107.2%" height="121.9%" filterUnits="objectBoundingBox" id="filter-4">
            <feOffset dx="0" dy="2" in="SourceAlpha" result="shadowOffsetOuter1"></feOffset>
            <feGaussianBlur stdDeviation="7" in="shadowOffsetOuter1" result="shadowBlurOuter1"></feGaussianBlur>
            <feColorMatrix values="0 0 0 0 0   0 0 0 0 0   0 0 0 0 0  0 0 0 0.5 0" type="matrix" in="shadowBlurOuter1" result="shadowMatrixOuter1"></feColorMatrix>
            <feMerge>
                <feMergeNode in="shadowMatrixOuter1"></feMergeNode>
                <feMergeNode in="SourceGraphic"></feMergeNode>
            </feMerge>
        </filter>
    </defs>
    <g id="svg" stroke="none" stroke-width="1" fill="none" fill-rule="evenodd">
        <g id="back" transform="translate(50.187467, 10.558681)">
            <mask id="mask-2" fill="white">
                <use xlink:href="#path-1" transform="translate(548.532425, 303.440329) rotate(1.000000) translate(-548.532425, -303.440329) "></use>
            </mask>
            <g id="Rectangle" transform="translate(548.532425, 303.440329) rotate(1.000000) translate(-548.532425, -303.440329) ">
                <use fill="black" fill-opacity="1" filter="url(#filter-3)" xlink:href="#path-1"></use>
                <rect stroke="#000000" stroke-width="10" fill="#D8D8D8" fill-rule="evenodd" x="0.0482322175" y="4.4403294" width="1096.96839" height="598" rx="28"></rect>
            </g>
            <g id="Group" mask="url(#mask-2)" fill-rule="nonzero">
                <g transform="translate(545.312533, 301.941319) scale(-1, 1) rotate(-180.000000) translate(-545.312533, -301.941319) translate(-13.187467, -10.558681)">
                    <path d="M31.407384,622.992095 C24.9991634,620.387211 15.7873463,611.771058 12.3829791,604.958285 C10.780924,602.153026 9.17886885,595.340254 8.57809818,589.930111 C6.57552925,572.89818 -1.23448957,53.5244706 0.167308677,45.5094443 C2.16987761,35.2902856 15.7873463,21.0636138 26.4009616,18.4587302 C37.8156045,15.4530954 1070.5404,-2.17996267 1079.95247,0.224545238 C1088.96404,2.82942881 1100.57893,13.0485874 1104.38382,22.0654921 C1106.7869,27.8763862 1108.1887,72.9609096 1112.19383,303.392918 L1117,577.707196 L1112.19383,586.924476 C1108.98972,593.136121 1104.38382,597.945137 1097.9756,601.95265 C1088.56352,607.763544 1087.56224,607.96392 1057.92422,608.565047 C955.592944,610.969555 96.691131,625.196227 69.4561936,624.997947 C51.2328163,624.997947 34.2109805,623.993973 31.407384,622.992095 Z M69.8567074,612.372185 C70.8579918,610.769179 72.460047,610.969555 75.4639004,612.772936 C80.6705796,615.978947 80.4703227,616.179322 80.6705796,607.362793 C80.8708365,601.151148 80.0698089,599.347767 77.2662124,598.546264 C75.0633866,597.945137 73.4613315,598.345888 73.4613315,599.347767 C73.4613315,600.349645 71.2585056,601.151148 68.4549091,601.151148 C64.8502851,601.151148 63.4484868,600.149269 63.4484868,597.544386 C63.4484868,595.340254 61.4459179,592.73537 59.0428352,591.533116 L54.4369266,589.328984 L58.8425783,589.328984 C61.245661,589.128608 63.4484868,588.12673 63.8490006,586.7241 C64.8502851,583.918841 89.281626,582.516211 92.4857363,585.121095 C95.4895897,587.525603 124.126325,583.918841 125.12761,581.113582 C125.528124,579.911328 126.929922,579.109825 128.531977,579.109825 C129.933775,579.109825 132.136601,577.907571 133.338142,576.304566 C135.340711,573.900058 133.338142,573.298931 120.121187,572.096677 C111.510141,571.295174 103.099352,570.293296 101.29704,569.892545 C99.4947275,569.291418 96.4908741,570.293296 94.888819,571.896301 C93.2867638,573.499307 91.2841949,574.100434 90.2829105,573.098555 C86.8785433,569.692169 76.0646711,568.890667 73.4613315,571.896301 C71.8592763,573.900058 68.0543953,574.701561 61.245661,574.100434 C55.0376973,573.699682 51.833587,574.300809 52.6346146,575.503063 C53.4356422,576.705317 52.4343577,576.705317 50.031275,575.302688 C47.8284492,574.100434 45.4253665,573.699682 44.6243389,574.501185 C44.0235682,575.102312 38.2161183,575.503063 31.6076409,575.302688 C24.9991634,575.102312 19.1917135,575.903815 18.3906859,576.905693 C16.1878601,580.512455 26.4009616,583.718465 41.0197148,584.119217 C49.0299905,584.319592 56.0389818,584.920719 56.6397525,585.521846 C58.2418076,587.124852 43.4227975,589.729735 34.0107236,589.529359 C29.2045581,589.328984 25.3996772,590.330862 25.3996772,591.533116 C25.3996772,592.534994 23.9978789,593.136121 22.3958238,592.334619 C14.7860619,589.529359 23.1968514,605.759788 32.0081546,611.370306 C37.014577,614.576317 41.4202286,615.177444 53.4356422,614.977068 C61.8464317,614.776693 69.0556798,613.574439 69.8567074,612.372185 Z M748.927831,592.73537 C748.527317,586.924476 747.926547,580.71283 747.72629,579.109825 C747.72629,577.50682 748.32706,574.100434 749.128088,571.695926 C750.329629,568.089164 749.929115,567.287661 747.526033,568.28954 C745.923978,568.890667 744.321922,570.894423 743.921409,572.697804 C743.320638,574.901936 742.119097,573.298931 740.517041,568.690291 C739.115243,564.482402 737.112674,561.076016 736.11139,561.076016 C733.708307,561.076016 733.908564,563.881275 736.511904,566.486159 C737.913702,567.888788 737.713445,569.491794 735.310362,571.695926 C732.90728,574.100434 732.506766,577.50682 733.50805,586.523725 C735.110105,602.754153 735.310362,603.154904 743.120381,603.154904 L749.929115,603.154904 L748.927831,592.73537 Z M811.407982,601.151148 C812.209009,599.948894 813.610807,599.748518 814.812349,600.349645 C816.01389,601.151148 816.01389,600.149269 814.612092,597.544386 C812.008752,592.534994 811.808495,588.928232 814.411835,593.136121 C816.01389,595.741005 816.614661,595.741005 818.817487,593.336497 C820.820056,591.33274 820.820056,590.931989 819.017743,591.933867 C816.614661,593.336497 815.613376,590.731613 815.813633,583.718465 C816.01389,582.315836 815.012606,581.113582 813.610807,581.113582 C812.409266,580.913206 813.610807,579.710952 816.414404,577.907571 L821.420826,574.901936 L815.012606,576.10419 C809.004899,577.306444 808.404128,576.905693 808.404128,572.297053 C808.404128,569.692169 807.603101,566.88691 806.401559,566.085407 C805.400275,565.48428 804.999761,563.881275 805.400275,562.478645 C806.001045,561.076016 805.600532,558.871884 804.599247,557.268878 C802.196164,553.461741 790.981778,556.267 789.379723,561.276391 C788.578696,563.280148 786.976641,565.083529 785.775099,565.083529 C784.373301,565.083529 782.170475,566.88691 780.768677,569.091042 C778.165337,573.298931 771.957374,574.701561 772.958658,570.894423 C773.158915,569.692169 772.157631,568.089164 770.956089,567.688413 C766.750694,566.085407 767.952236,580.111703 773.359172,597.143635 C774.76097,601.95265 774.76097,601.95265 770.956089,598.74664 C765.949667,594.138 764.347612,594.138 764.347612,599.147391 C764.347612,602.954529 765.74941,603.154904 787.176898,603.154904 C800.594109,603.154904 810.606954,602.353402 811.407982,601.151148 Z M851.058846,597.744761 C853.862443,594.538751 853.862443,593.937624 850.858589,591.132365 C848.054993,588.527481 847.854736,588.727857 849.056277,591.733492 C849.657048,593.536873 849.456791,595.139878 848.655764,595.139878 C847.654479,595.139878 846.452938,596.542508 845.65191,598.145513 C844.250112,602.153026 847.053708,601.95265 851.058846,597.744761 Z M77.4664693,593.336497 C77.4664693,589.729735 73.8618452,589.128608 71.4587625,592.134243 C69.4561936,594.739127 69.6564505,595.139878 73.2610746,595.139878 C75.4639004,595.139878 77.4664693,594.338375 77.4664693,593.336497 Z M1058.72524,587.124852 C1074.14502,584.519968 1101.58022,575.903815 1104.38382,572.497428 C1106.98716,569.491794 1100.17842,168.740475 1097.57508,166.335967 C1094.57123,163.530708 1058.9255,158.32094 1043.10521,158.32094 C1030.08851,158.32094 1027.48517,157.719814 1022.27849,153.311549 C1014.66873,146.899528 1011.66487,147.901406 1011.86513,156.116808 C1012.26565,160.925824 1011.46462,162.328454 1008.46076,162.328454 C1006.4582,162.328454 1004.65588,161.326575 1004.65588,160.124321 C1004.65588,158.521316 1003.85486,158.521316 1002.2528,159.923946 C1000.851,160.925824 990.838158,166.536343 979.824028,171.946485 C944.779072,190.18067 929.159035,207.212601 910.535143,246.886982 C908.132061,251.896373 908.532575,252.697876 914.540281,257.907643 C918.144905,260.913278 922.150043,264.119289 923.551842,264.920791 C927.757236,267.325299 995.644323,275.13995 1001.05126,273.937696 C1003.6546,273.136193 1008.86128,269.930183 1012.26565,266.523797 C1015.87027,263.317786 1020.07566,260.512527 1021.87798,260.512527 C1023.68029,260.512527 1026.48388,258.909521 1027.88568,257.106141 C1029.88825,254.100506 1033.49288,253.499379 1048.11163,253.499379 C1069.73937,253.499379 1082.1553,258.50877 1090.16558,270.731685 C1100.37868,286.360987 1097.77534,310.406066 1084.35813,321.627103 C1073.14374,331.044759 1065.53398,333.248891 1039.30033,333.649642 C1003.25408,334.451145 1003.05383,334.651521 997.646892,379.134917 C994.643038,403.981499 994.643038,406.987134 997.446635,412.597652 C1001.65203,420.412303 1005.0564,422.215684 1021.67772,424.820567 C1038.89981,427.625827 1052.51728,433.436721 1059.92679,441.050996 C1065.33372,446.661514 1065.73424,448.464895 1065.73424,461.890064 C1065.73424,475.515609 1065.33372,477.118615 1059.72653,482.929509 C1050.91523,492.146789 1044.30675,494.952048 1031.08979,494.952048 C1017.47232,494.952048 1008.26051,489.942657 1001.65203,479.122371 C990.637901,460.888186 990.637901,460.888186 956.594229,456.880673 C914.139768,451.670906 911.936942,451.670906 904.32718,458.483678 C898.719987,463.49307 897.918959,465.296451 898.119216,474.11298 C898.719987,492.747916 910.13463,518.195625 927.757236,540.036572 C956.193715,574.901936 1011.0641,594.538751 1058.72524,587.124852 Z M838.242405,582.516211 C837.841891,582.315836 836.039579,580.913206 834.237267,579.510576 C831.633928,577.707196 831.033157,577.707196 831.033157,580.111703 C831.033157,581.714709 832.835469,583.117338 835.038295,583.117338 C837.241121,583.117338 838.642919,582.916963 838.242405,582.516211 Z M49.4305043,557.268878 C49.4305043,555.064746 37.6153476,552.059111 36.0132925,553.862492 C35.2122649,554.463619 36.6140632,555.064746 39.0171459,555.064746 C41.2199717,555.064746 43.8233113,556.066624 44.424082,557.068503 C46.0261371,559.673386 49.4305043,559.673386 49.4305043,557.268878 Z M43.4227975,549.053476 C43.4227975,548.051598 42.0209993,547.04972 40.4189441,547.04972 C38.816889,547.04972 37.4150907,548.051598 37.4150907,549.053476 C37.4150907,550.25573 38.816889,551.057233 40.4189441,551.057233 C42.0209993,551.057233 43.4227975,550.25573 43.4227975,549.053476 Z M84.4754606,545.045963 C86.0775157,545.045963 87.8798277,546.047841 88.4805984,547.04972 C89.0813691,548.251974 90.6834242,549.053476 91.6847087,549.053476 C92.8862501,549.053476 93.086507,548.251974 92.4857363,547.04972 C91.6847087,545.847466 94.0877914,545.045963 98.2931862,545.045963 C105.302177,545.045963 109.507572,542.240704 104.901664,540.437323 C103.700122,540.036572 97.4921586,540.236947 91.4844518,541.03845 C83.0736623,542.240704 79.6692951,541.839953 77.2662124,539.63582 C74.6628728,537.431688 73.6615883,537.431688 73.0608177,539.235069 C72.6603039,540.637699 69.4561936,542.040328 66.2520833,542.240704 C57.6410369,542.641455 57.0402662,542.841831 58.4420645,545.045963 C59.0428352,546.047841 61.0454041,546.248217 62.8477161,545.64709 C64.8502851,544.845587 65.6513126,545.246339 64.8502851,546.448593 C64.0492575,547.851222 66.2520833,548.051598 71.4587625,547.04972 C75.6641573,546.248217 79.2687813,546.248217 79.0685245,546.849344 C78.6680107,550.25573 80.0698089,551.65836 80.8708365,548.652725 C81.2713503,546.648968 83.0736623,545.045963 84.4754606,545.045963 Z M755.936822,548.251974 C756.938107,547.650847 764.948382,544.845587 773.559429,542.240704 C804.799504,532.221921 831.033157,509.579471 845.451653,479.923874 C869.081967,431.833716 864.275801,379.335293 831.433671,328.439875 C826.827762,321.226352 806.601816,294.776765 786.37587,269.729807 C766.350181,244.68285 750.529886,223.643405 751.130657,223.042278 C751.731427,222.441151 778.165337,225.046035 809.805926,228.853173 C872.486334,236.467448 877.292499,236.267072 882.699435,226.248289 C884.902261,222.0404 892.512023,168.139348 892.512023,155.916433 C892.512023,152.710422 890.10894,147.901406 887.105087,144.294644 C880.696866,137.481872 892.71228,139.084877 707.875168,117.24393 C631.977806,108.02665 628.172925,107.826274 623.166502,111.032285 C615.957254,115.841301 614.755713,120.249565 610.149804,156.51756 C605.944409,191.382924 606.344923,193.787432 615.957254,206.210723 C624.368044,217.231384 625.369328,219.435517 621.36419,217.832511 C619.161364,217.031009 618.360337,217.231384 619.161364,218.634014 C619.962392,219.836268 621.764704,220.237019 623.366759,219.635892 C624.968814,219.034765 628.373181,221.639649 631.577292,226.448665 C634.781402,230.656554 656.609403,259.109897 680.239717,289.767373 C743.520895,371.520642 744.121666,372.52252 750.9304,385.546938 C756.537593,396.367224 757.33862,399.77361 757.33862,413.799906 C757.33862,427.625827 756.537593,431.232589 751.931684,439.047239 C740.517041,458.483678 712.080563,462.491191 694.057442,447.463017 C687.248708,441.652123 678.237148,424.620192 678.237148,417.406668 C678.237148,414.801784 675.633808,409.992769 672.629955,406.586382 C667.223019,400.575113 666.021477,400.174361 637.184485,396.567599 C594.93028,391.357832 591.125399,391.558208 583.916151,398.571356 C578.909729,403.580748 578.108701,405.985255 578.108701,415.202536 C578.308958,437.844985 587.721032,466.69908 602.339785,488.339651 C624.768557,521.802387 662.61711,544.24446 704.270544,548.652725 C720.291095,550.456106 752.932969,550.055355 755.936822,548.251974 Z M54.6371835,546.047841 C53.0351284,544.444836 51.2328163,543.042206 50.6320457,543.042206 C50.031275,543.042206 50.031275,544.444836 50.6320457,546.047841 C51.4330732,547.650847 53.2353853,549.053476 54.8374404,549.053476 C57.2405231,549.053476 57.2405231,548.652725 54.6371835,546.047841 Z M124.526839,541.03845 C123.325298,539.034693 127.530693,538.032815 133.338142,539.034693 C138.745079,539.63582 145.553813,536.830561 145.553813,534.025302 C145.553813,532.422297 144.552528,531.019667 143.350987,531.019667 C142.349703,531.019667 141.748932,531.82117 142.349703,532.823048 C142.950473,533.824926 142.149446,535.227556 140.547391,535.828683 C138.745079,536.42981 136.942766,535.828683 136.341996,534.426053 C135.140454,531.019667 124.526839,532.422297 121.122472,536.42981 C119.32016,538.834318 119.32016,539.63582 121.723243,541.238826 C125.327867,543.442958 126.128894,543.442958 124.526839,541.03845 Z M419.905756,510.180598 C469.168952,501.163694 506.01622,470.305842 531.448845,417.005917 C539.058607,400.575113 544.06503,386.148065 550.272993,361.702235 C553.07659,351.082325 556.080443,343.868801 559.685067,340.262039 C562.488664,337.056029 565.092003,333.048515 565.29226,331.245135 C565.492517,329.241378 566.093288,326.235743 566.894315,324.432362 C567.8956,322.22823 566.694058,320.224473 563.690205,318.220717 C559.284553,315.215082 559.084297,314.613955 560.285838,292.372257 C566.293545,182.165644 526.242166,108.828153 448.742749,87.989084 C436.727335,84.7830735 426.71449,83.5808195 407.890342,83.5808195 C379.854377,83.3804439 364.835111,86.5864544 346.010963,96.2044861 C310.765749,114.438671 289.338262,137.481872 269.51283,179.360385 L259.099471,200.80058 L250.888939,199.397951 C246.483287,198.596448 231.063506,197.59457 216.64501,196.993443 C202.42677,196.592691 185.805448,195.791189 179.997998,195.590813 C174.190549,195.190062 168.983869,195.590813 168.583356,196.592691 C167.582071,198.195697 172.78875,201.000956 177.594916,201.201332 C179.196971,201.401707 181.600054,202.20321 183.001852,203.004713 C184.203393,203.806215 186.606476,204.006591 188.208531,203.205088 C190.010843,202.603961 191.612898,203.806215 192.614183,206.81185 L194.216238,211.42049 L195.017265,206.81185 C195.818293,202.603961 196.619321,202.403586 205.230367,203.60584 C210.437046,204.407342 215.243212,205.809972 216.044239,207.012226 C216.845267,208.414855 219.048093,208.414855 223.05323,206.81185 C229.261194,204.206966 255.29459,204.006591 256.696388,206.411099 C257.297159,207.412977 255.494847,216.429882 252.691251,226.849416 C243.67969,261.113654 240.876094,282.954601 240.876094,323.630859 C240.675837,365.308997 242.878663,381.138674 253.492278,412.397277 C263.104609,440.049118 279.12516,462.891943 302.35496,481.526879 C316.773456,493.148667 328.388356,499.159937 346.81199,504.770456 C373.446157,512.785482 395.874929,514.388487 419.905756,510.180598 Z M116.516563,464.294572 C136.542253,457.682176 161.974878,440.650245 174.390805,425.62207 C195.618036,399.77361 204.629596,370.719139 203.027541,332.647764 C201.425486,291.971505 188.408788,263.317786 150.159721,215.828755 C143.15073,207.212601 137.944051,199.397951 138.344565,198.596448 C139.546106,196.793067 154.965887,197.394194 160.172566,199.397951 C162.175135,200.199453 163.576933,199.999078 163.576933,198.596448 C163.576933,194.989686 155.166144,192.785554 140.146877,192.585178 C132.136601,192.384803 131.53583,191.984051 112.711682,168.94085 C100.696269,153.912676 94.6885621,145.096147 96.4908741,144.695396 C97.8926724,144.294644 122.324013,146.899528 150.560235,150.105538 C213.040386,157.719814 215.843982,157.719814 222.852974,151.508168 C228.059653,147.099904 228.660423,144.895771 232.865818,112.034163 C237.071213,79.172555 237.071213,76.7680471 234.06736,70.1556504 C232.064791,66.3485128 228.660423,62.140624 226.057084,60.93837 C223.654001,59.7361161 203.828569,56.5301055 182.000567,54.1255976 C160.372823,51.520714 115.114765,46.1105712 81.4716072,42.103058 C44.2238251,37.4944179 18.9914566,35.2902856 16.9888877,36.2921639 C9.57938264,40.0993015 8.77835507,49.5169574 10.3804102,123.856327 L11.9824654,195.190062 L28.0030168,216.429882 C37.014577,228.05167 53.6358991,249.491866 65.050542,264.119289 C76.4651848,278.746712 89.4818829,297.782399 93.8875345,306.198177 C101.497296,321.025976 101.89781,322.22823 101.096783,337.857531 C100.696269,351.2827 99.6949844,355.290214 95.0890759,362.102986 C88.2803415,372.322145 77.6667262,377.531912 63.4484868,377.531912 C42.0209993,377.331536 30.0055857,366.310875 22.5960807,340.462415 C20.7937686,334.250769 18.190429,328.2395 16.7886308,326.83687 C14.3855481,325.033489 14.1852912,335.252648 14.9863187,392.159335 C15.5870894,439.047239 16.5883739,460.68781 18.190429,462.290816 C23.3971082,467.901334 43.8233113,470.906969 72.460047,470.105466 C96.0903603,469.504339 103.099352,468.702837 116.516563,464.294572 Z M889.50817,249.491866 C889.50817,246.486231 887.705858,245.283977 881.898408,244.282098 C872.286077,242.679093 870.884279,244.883225 877.89327,250.493744 C884.301491,255.503135 889.50817,255.102384 889.50817,249.491866 Z M861.472205,244.482474 C860.47092,242.879469 859.269379,242.879469 858.067838,244.081723 C856.866296,245.283977 856.666039,247.287733 857.467067,248.489987 C858.468351,250.092992 859.669893,250.092992 860.871434,248.890739 C862.072975,247.688485 862.273232,245.684728 861.472205,244.482474 Z M836.440093,246.486231 C836.440093,243.480596 831.233414,241.87759 828.229561,243.680971 C826.427249,244.68285 826.827762,245.684728 829.631359,246.686606 C835.038295,248.890739 836.440093,248.690363 836.440093,246.486231 Z M780.968934,245.283977 C783.17176,243.079844 780.368163,240.474961 777.36431,241.677215 C775.762255,242.478717 774.961227,243.680971 775.561998,244.68285 C776.763539,246.886982 779.166622,247.087358 780.968934,245.283977 Z M626.170356,228.652797 C626.170356,226.248289 622.165218,223.643405 620.76342,225.046035 C619.361621,226.448665 621.964961,230.456178 624.368044,230.456178 C625.369328,230.456178 626.170356,229.654675 626.170356,228.652797 Z M604.142097,225.647162 C604.142097,224.044157 601.538758,222.441151 598.134391,222.0404 C594.129253,221.439273 592.126684,222.0404 592.126684,223.643405 C592.126684,225.847538 593.928996,226.64904 602.740299,228.252046 C603.541327,228.252046 604.142097,227.250167 604.142097,225.647162 Z M949.585238,182.566395 C948.984467,181.364141 946.781641,180.362263 944.979329,180.362263 C942.375989,180.362263 942.375989,180.763014 945.780357,183.167522 C949.985751,186.173157 951.788063,185.972781 949.585238,182.566395 Z M1098.77662,123.2552 C1098.77662,101.815005 1098.17585,93.7999782 1096.37354,93.1988512 C1092.96917,91.9965972 817.816202,58.1331108 817.015175,58.9346134 C815.813633,60.1368674 809.60567,116.242052 810.606954,117.043555 C811.808495,118.446184 1078.75093,151.708544 1090.36583,152.109295 L1098.77662,152.309671 L1098.77662,123.2552 Z M692.655644,70.5564017 C694.057442,69.1537721 696.260268,68.1518938 697.662066,68.1518938 C699.063865,68.1518938 700.265406,67.3503911 700.265406,66.1481372 C700.265406,62.9421266 708.275682,59.7361161 713.282104,60.93837 C715.685187,61.539497 718.288526,63.9440049 718.889297,66.3485128 C720.090838,70.7567773 725.698031,70.5564017 724.696747,66.1481372 C724.296233,64.7455076 725.898288,62.3409996 728.301371,60.7379944 C732.506766,57.7323595 733.908564,52.121841 730.30394,52.121841 C729.302655,52.121841 728.301371,50.7192114 728.301371,48.9158305 C728.301371,46.1105712 728.501628,46.1105712 731.505481,48.9158305 C734.909848,52.3222167 739.515757,53.1237193 741.117812,50.5188357 C743.320638,46.9120739 739.716014,40.0993015 735.510619,40.0993015 C733.107536,40.0993015 732.306509,39.4981745 733.50805,38.4962962 C737.112674,36.0917883 740.517041,28.0767619 739.115243,25.672254 C738.113959,24.2696244 739.115243,23.868873 741.718583,24.47 C746.925262,25.8726296 752.532455,21.6647408 750.329629,18.2583546 C749.128088,16.0542223 739.515757,15.653471 705.472085,15.8538467 C681.441258,16.0542223 660.414284,16.855725 658.411715,17.6572276 C654.406578,19.2602329 641.790393,33.0861534 638.185769,39.8989258 C635.782687,44.507566 635.58243,44.507566 633.579861,40.9008041 C624.968814,25.071127 596.532336,11.4455822 592.727455,21.4643651 C590.324372,27.4756349 584.116408,32.0842751 578.108701,32.0842751 C574.704334,32.0842751 572.100995,33.0861534 572.100995,34.6891587 C572.100995,36.0917883 571.09971,35.6910369 569.898169,33.6872804 C568.896884,31.6835238 566.694058,30.6816455 565.092003,31.2827724 C560.686352,33.0861534 561.487379,35.8914126 566.694058,38.0955449 C569.097141,39.2977988 572.701765,41.3015554 574.904591,42.5038094 C577.908444,44.507566 578.709472,44.507566 579.5105,42.704185 C580.912298,38.8970475 583.715894,39.4981745 585.117693,43.906439 C585.718463,45.9101956 590.925143,49.9177088 596.732592,52.722968 C608.948263,58.5338621 625.769842,58.9346134 631.777549,53.5244706 C634.981659,50.5188357 635.982943,50.5188357 639.387311,53.1237193 C641.38988,54.7267246 644.59399,56.1293542 646.396302,56.1293542 C648.198614,56.1293542 650.801953,57.5319838 652.203752,59.1349891 C654.406578,61.7398727 654.206321,61.9402483 651.402724,60.93837 C649.600412,60.1368674 648.198614,60.7379944 648.198614,62.140624 C648.198614,63.7436293 649.800669,64.1443806 652.604266,63.5432536 C655.207605,62.741751 658.411715,63.5432536 660.214027,65.1462589 C662.016339,66.7492642 665.420707,68.3522694 667.823789,68.7530207 C670.226872,69.1537721 673.230725,70.356026 674.432267,71.55828 C677.035606,74.1631635 689.651791,73.5620366 692.655644,70.5564017 Z M749.929115,52.722968 C748.927831,47.7135765 744.321922,47.1124495 744.321922,51.9214654 C744.321922,54.3259733 745.523464,56.1293542 747.526033,56.1293542 C749.328345,56.1293542 750.329629,54.7267246 749.929115,52.722968 Z M560.085581,32.2846507 C560.085581,31.2827724 558.083012,29.2790158 555.479672,27.4756349 C551.875048,25.2715027 550.47325,25.071127 548.670938,27.0748836 C547.068883,28.8782645 546.868626,30.0805185 548.670938,31.8838994 C551.274278,34.488783 560.085581,34.8895343 560.085581,32.2846507 Z M544.06503,23.0673704 C542.663231,21.4643651 540.660662,20.0617355 539.659378,20.0617355 C538.457837,20.0617355 538.658094,21.4643651 540.059892,23.0673704 C541.46169,24.6703757 543.464259,26.0730053 544.465543,26.0730053 C545.667085,26.0730053 545.466828,24.6703757 544.06503,23.0673704 Z" id="Shape" fill="#D10000"></path>
                    <path d="M782.771246,588.727857 C783.77253,585.722222 796.388715,583.918841 796.388715,586.7241 C796.388715,588.727857 789.980494,591.132365 784.773815,591.132365 C783.17176,591.132365 782.370732,589.930111 782.771246,588.727857 Z" id="Path" fill="#000000"></path>
                    <path d="M382.057203,416.805541 C367.238193,413.198779 357.025092,399.172483 350.416614,373.724774 C345.410192,354.08796 345.410192,303.593294 350.616871,274.538823 C356.624578,240.675336 366.637423,212.422369 372.645129,212.422369 C374.046928,212.422369 377.251038,214.225749 379.854377,216.429882 C385.261314,221.038522 388.265167,221.639649 386.663112,217.632136 C385.46157,214.626501 391.068763,211.620866 394.272874,213.624622 C395.474415,214.426125 396.075186,213.824998 395.474415,212.221993 C394.873644,210.218236 391.068763,209.416734 383.258745,209.416734 C376.650267,209.416734 371.844102,208.615231 371.844102,207.412977 C371.844102,204.006591 389.867222,184.570152 396.075186,181.364141 C403.684948,177.356628 419.304985,177.757379 427.515518,181.965268 C437.328106,187.175035 450.545061,208.414855 443.936583,208.414855 C440.331959,208.414855 441.934014,214.025374 445.738895,215.027252 C458.154823,218.233263 458.755593,282.353474 447.140693,337.657156 C434.925023,394.764219 410.894196,424.019065 382.057203,416.805541 Z M415.700361,212.221993 C412.696508,210.418612 409.292141,211.821242 410.894196,214.426125 C411.494967,215.428003 413.497535,215.628379 415.099591,215.027252 C417.502673,214.225749 417.70293,213.424247 415.700361,212.221993 Z M435.926307,214.626501 C435.926307,213.624622 434.524509,212.422369 432.922454,211.620866 C429.918601,210.618988 428.917316,212.622744 431.320399,215.027252 C433.122711,217.031009 435.926307,216.830633 435.926307,214.626501 Z M408.491113,210.418612 C409.292141,207.412977 408.491113,206.411099 405.687517,206.411099 C403.284434,206.411099 401.882636,207.813728 401.882636,210.418612 C401.882636,212.622744 403.084177,214.426125 404.686232,214.426125 C406.08803,214.426125 407.890342,212.622744 408.491113,210.418612 Z M427.916032,210.618988 C427.916032,209.617109 426.514234,208.21448 424.711921,207.613353 C420.30627,205.809972 419.905756,206.010347 419.905756,209.416734 C419.905756,211.019739 421.708068,212.422369 423.910894,212.422369 C426.11372,212.422369 427.916032,211.620866 427.916032,210.618988 Z" id="Shape" fill="#000000"></path>
                </g>
            </g>
            <rect id="green" stroke="#979797" fill="#148224" mask="url(#mask-2)" transform="translate(955.075670, 552.131136) rotate(-8.000000) translate(-955.075670, -552.131136) " x="805.07567" y="524.131136" width="300" height="56"></rect>
            <g id="transparentwrapper-2" mask="url(#mask-2)" fill="#D8D8D8" opacity="0.799719038" stroke="#DE0C17" stroke-width="9">
                <g transform="translate(303.812533, 58.441319)" id="transparentwrapper">
                    <rect x="4.5" y="4.5" width="481" height="481" rx="26"></rect>
                </g>
            </g>
            <g id="Баница-с-късмети-202" filter="url(#filter-4)" mask="url(#mask-2)">
                <g transform="translate(549.931002, 155.667374) rotate(1.000000) translate(-549.931002, -155.667374) translate(117.282414, 14.137317)">
                    <path d="M45.5273438,8.10058594 C45.641276,8.60188802 45.6982422,8.96647135 45.6982422,9.19433594 C45.6982422,9.7639974 45.4817708,10.1513672 45.0488281,10.3564453 C44.6158854,10.5615234 43.9664714,10.6640625 43.1005859,10.6640625 C42.8955078,10.6640625 42.6733398,10.6640625 42.434082,10.6640625 C42.1948242,10.6640625 41.9498698,10.641276 41.6992188,10.5957031 C41.4713542,10.5729167 41.015625,10.5216471 40.3320312,10.4418945 C39.6484375,10.3621419 38.8167318,10.2596029 37.8369141,10.1342773 C36.8570964,10.0089518 35.7519531,9.87792969 34.5214844,9.74121094 C33.2910156,9.60449219 32.0263672,9.47916667 30.7275391,9.36523437 C29.4287109,9.25130208 28.1241862,9.14876302 26.8139648,9.05761719 C25.5037435,8.96647135 24.2675781,8.90950521 23.1054688,8.88671875 C22.0345052,10.0260417 20.9350586,11.2166341 19.8071289,12.4584961 C18.6791992,13.7003581 17.5512695,15.016276 16.4233398,16.40625 C15.2954102,17.796224 14.2016602,19.2716471 13.1420898,20.8325195 C12.0825195,22.3933919 11.085612,24.0625 10.1513672,25.8398437 C11.3590495,24.5410156 12.5154622,23.4073893 13.6206055,22.4389648 C14.7257487,21.4705404 15.8992513,20.6730143 17.1411133,20.0463867 C18.3829753,19.4197591 19.7558594,18.9469401 21.2597656,18.6279297 C22.7636719,18.3089193 24.5182292,18.1494141 26.5234375,18.1494141 C27.9589844,18.1494141 29.2521159,18.2861328 30.402832,18.5595703 C31.5535482,18.8330078 32.5333659,19.2716471 33.3422852,19.8754883 C34.1512044,20.4793294 34.7721354,21.2711589 35.2050781,22.2509766 C35.6380208,23.2307943 35.8544922,24.4156901 35.8544922,25.8056641 C35.8544922,26.398112 35.8146159,27.0247396 35.7348633,27.6855469 C35.6551107,28.3463542 35.546875,29.0299479 35.4101562,29.7363281 C35.0911458,31.2858073 34.5043945,32.7555339 33.6499023,34.1455078 C32.7954102,35.5354818 31.7757161,36.8172201 30.5908203,37.9907227 C29.4059245,39.1642253 28.1013997,40.218099 26.6772461,41.1523437 C25.2530924,42.0865885 23.8061523,42.8841146 22.3364258,43.5449219 C20.8666992,44.2057292 19.4254557,44.7127279 18.0126953,45.065918 C16.5999349,45.4191081 15.3011068,45.5957031 14.1162109,45.5957031 C12.4527995,45.5957031 10.9261068,45.3393555 9.53613281,44.8266602 C8.14615885,44.3139648 6.94986979,43.5734049 5.94726562,42.6049805 C4.94466146,41.636556 4.16422526,40.4402669 3.60595703,39.0161133 C3.0476888,37.5919596 2.76855469,35.9684245 2.76855469,34.1455078 C2.76855469,32.7555339 2.91666667,31.3883464 3.21289062,30.0439453 C3.64583333,28.0615234 4.44905599,26.0904948 5.62255859,24.1308594 C6.7960612,22.171224 8.18033854,20.2799479 9.77539062,18.4570312 C11.3704427,16.6341146 13.0908203,14.9080404 14.9365234,13.2788086 C16.7822266,11.6495768 18.59375,10.1855469 20.3710938,8.88671875 C18.3886719,9.0234375 16.4404297,9.24560547 14.5263672,9.55322266 C12.6123047,9.86083984 10.9033203,10.1855469 9.39941406,10.5273437 C7.89550781,10.8691406 6.67643229,11.1995443 5.7421875,11.5185547 C4.80794271,11.8375651 4.34082031,12.0768229 4.34082031,12.2363281 C4.34082031,12.4186198 4.47753906,12.5268555 4.75097656,12.5610352 C5.02441406,12.5952148 5.45735677,12.6692708 6.04980469,12.7832031 C7.34863281,13.0566406 8.31136068,13.3129883 8.93798828,13.5522461 C9.56461589,13.7915039 9.88932292,13.9794922 9.91210938,14.1162109 C9.84375,14.2757161 9.54752604,14.3554687 9.0234375,14.3554687 C8.90950521,14.3554687 8.78417969,14.3554687 8.64746094,14.3554687 C8.51074219,14.3554687 8.35123698,14.3440755 8.16894531,14.3212891 C6.27766927,14.1389974 4.79085286,14.0079753 3.70849609,13.9282227 C2.62613932,13.8484701 1.81152344,13.745931 1.26464844,13.6206055 C0.717773438,13.4952799 0.370279948,13.3072917 0.222167969,13.0566406 C0.0740559896,12.8059896 0,12.4072266 0,11.8603516 C0,11.7008464 0.0284830729,11.4501953 0.0854492188,11.1083984 C0.142415365,10.7666016 0.262044271,10.2880859 0.444335937,9.67285156 C0.922851562,8.1233724 1.46972656,6.81315104 2.08496094,5.7421875 C2.70019531,4.67122396 3.52620443,3.77685547 4.56298828,3.05908203 C5.59977214,2.34130859 6.92138672,1.77734375 8.52783203,1.3671875 C10.1342773,0.95703125 12.179362,0.638020833 14.6630859,0.41015625 C16.3948568,0.250651042 18.0240885,0.142415365 19.5507812,0.0854492187 C21.077474,0.0284830729 22.5244141,-2.84217094e-14 23.8916016,-2.84217094e-14 C25.1676432,-2.84217094e-14 26.4835612,0.0398763021 27.8393555,0.119628906 C29.1951497,0.19938151 30.5338542,0.313313802 31.8554688,0.461425781 C33.1770833,0.60953776 34.4474284,0.774739583 35.6665039,0.95703125 C36.8855794,1.13932292 37.985026,1.3273112 38.9648438,1.52099609 C39.9446615,1.71468099 40.7763672,1.90836589 41.4599609,2.10205078 C42.1435547,2.29573568 42.6220703,2.47233073 42.8955078,2.63183594 C43.1461589,2.79134115 43.3626302,2.95654297 43.5449219,3.12744141 C43.7272135,3.29833984 43.8867188,3.49772135 44.0234375,3.72558594 C44.1601562,3.95345052 44.2911784,4.22688802 44.4165039,4.54589844 C44.5418294,4.86490885 44.6728516,5.24088542 44.8095703,5.67382812 L45.5273438,8.10058594 Z M31.0693359,26.7626953 C31.0693359,26.2613932 30.9326172,25.7259115 30.6591797,25.15625 C30.3857422,24.5865885 29.9755859,24.0625 29.4287109,23.5839844 C28.8818359,23.1054687 28.1925456,22.7067057 27.3608398,22.3876953 C26.5291341,22.0686849 25.555013,21.9091797 24.4384766,21.9091797 C23.5270182,21.9091797 22.5528971,22.0686849 21.5161133,22.3876953 C20.4793294,22.7067057 19.4482422,23.1453451 18.4228516,23.7036133 C17.3974609,24.2618815 16.4005534,24.9112956 15.4321289,25.6518555 C14.4637044,26.3924154 13.5807292,27.1899414 12.7832031,28.0444336 C11.9856771,28.8989258 11.3134766,29.7875977 10.7666016,30.7104492 C10.2197266,31.6333008 9.85514323,32.5504557 9.67285156,33.4619141 C9.55891927,33.9860026 9.47347005,34.4986979 9.41650391,35 C9.35953776,35.5013021 9.33105469,36.0026042 9.33105469,36.5039062 C9.33105469,37.2558594 9.41080729,37.9736328 9.5703125,38.6572266 C9.72981771,39.3408203 9.98616536,39.9389648 10.3393555,40.4516602 C10.6925456,40.9643555 11.159668,41.3745117 11.7407227,41.6821289 C12.3217773,41.9897461 13.0338542,42.1435547 13.8769531,42.1435547 C14.9934896,42.1435547 16.1897786,41.8473307 17.4658203,41.2548828 C18.741862,40.6624349 20.0179036,39.8933919 21.2939453,38.9477539 C22.569987,38.0021159 23.7947591,36.9482422 24.9682617,35.7861328 C26.1417643,34.6240234 27.1842448,33.4733073 28.0957031,32.3339844 C29.0071615,31.1946615 29.7306315,30.1293945 30.2661133,29.1381836 C30.8015951,28.1469727 31.0693359,27.3551432 31.0693359,26.7626953 Z" id="Shape" stroke="none" fill="#FFFFFF" fill-rule="nonzero"></path>
                    <path d="M45.9472453,27.7880859 C49.410787,24.6435547 52.7717896,22.3079427 56.0302531,20.78125 C59.2887167,19.2545573 61.8066203,18.4912109 63.5839641,18.4912109 C64.0624797,18.4912109 64.5068156,18.6905924 64.9169719,19.0893555 C65.3271281,19.4881185 65.6518352,19.9495443 65.891093,20.4736328 C66.1303508,20.9977214 66.2499797,21.3850911 66.2499797,21.6357422 C66.2499797,22.0458984 66.0904745,22.347819 65.7714641,22.5415039 C65.4524536,22.7351888 64.8941854,22.96875 64.0966594,23.2421875 C64.2561646,23.6067708 64.4612427,24.0738932 64.7118937,24.6435547 C64.9625448,25.2132161 65.1562297,25.6746419 65.2929484,26.027832 C65.4296672,26.3810221 65.4980266,26.6943359 65.4980266,26.9677734 C65.4980266,27.5146484 64.9454549,28.5343424 63.8403117,30.0268555 C62.7351685,31.5193685 61.9604289,32.6188151 61.516093,33.3251953 C61.071757,34.0315755 60.8495891,34.8974609 60.8495891,35.9228516 C60.8495891,37.6090495 61.6243286,38.4521484 63.1738078,38.4521484 C64.7688599,38.4521484 67.2639771,36.9596354 70.6591594,33.9746094 L70.6591594,36.0595703 C64.8941854,42.4625651 60.7698365,45.6640625 58.2861125,45.6640625 C57.3974406,45.6640625 56.7651164,45.3735352 56.3891398,44.7924805 C56.0131633,44.2114258 55.825175,43.351237 55.825175,42.2119141 C55.825175,40.4117839 56.4745891,37.8027344 57.7734172,34.3847656 C54.4465943,38.0761719 51.9742635,40.7023112 50.356425,42.2631836 C48.7385865,43.824056 47.4055786,44.6044922 46.3574016,44.6044922 C45.8560995,44.6044922 45.2294719,44.1715495 44.4775187,43.3056641 C43.7255656,42.4397786 43.0590617,41.3175456 42.478007,39.9389648 C41.8969523,38.5603841 41.606425,37.1305339 41.606425,35.6494141 C41.606425,34.5784505 41.7089641,33.684082 41.9140422,32.9663086 C42.1191203,32.2485352 42.5178833,31.5136719 43.1103312,30.7617188 C43.7027792,30.0097656 44.6484172,29.0185547 45.9472453,27.7880859 Z M62.3193156,24.0283203 C56.3948365,26.7399089 52.1736451,29.0413411 49.6557414,30.9326172 C47.1378378,32.8238932 45.8788859,34.7721354 45.8788859,36.7773438 C45.8788859,37.5065104 46.0042115,38.1046549 46.2548625,38.5717773 C46.5055135,39.0388997 46.8473104,39.2724609 47.2802531,39.2724609 C47.5309042,39.2724609 47.9752401,39.1129557 48.6132609,38.7939453 C51.0058391,37.3811849 53.1933391,35.5411784 55.1757609,33.2739258 C57.1581828,31.0066732 59.5393677,27.9248047 62.3193156,24.0283203 Z" id="Shape" stroke="none" fill="#FFFFFF" fill-rule="nonzero"></path>
                    <path d="M96.4062094,36.1279297 C94.7655844,37.7457682 93.3414307,39.124349 92.1337484,40.2636719 C90.9260661,41.4029948 89.8664958,42.3372396 88.9550375,43.0664063 C88.0435792,43.7955729 87.2517497,44.3253581 86.5795492,44.6557617 C85.9073487,44.9861654 85.2864177,45.1513672 84.7167563,45.1513672 C83.8964438,45.1513672 83.2185466,44.8779297 82.6830648,44.3310547 C82.1475831,43.7841797 81.8798422,42.9296875 81.8798422,41.7675781 C81.8798422,41.266276 81.9254151,40.764974 82.0165609,40.2636719 C82.1077068,39.7623698 82.267212,39.2097982 82.4950766,38.605957 C82.7229411,38.0021159 83.0305583,37.3242188 83.4179281,36.5722656 C83.8052979,35.8203125 84.2952068,34.9430339 84.8876547,33.9404297 C83.7939047,34.1682943 82.6602784,34.5784505 81.4867758,35.1708984 C80.3132732,35.7633464 79.1454672,36.4754232 77.9833578,37.3071289 C76.8212484,38.1388346 75.6705323,39.050293 74.5312094,40.0415039 C73.3918865,41.0327148 72.2981365,42.0410156 71.2499594,43.0664063 C71.0676677,43.2486979 70.8056234,43.4138997 70.4638266,43.5620117 C70.1220297,43.7101237 69.7802328,43.7841797 69.4384359,43.7841797 C68.9827068,43.7841797 68.595337,43.6531576 68.2763266,43.3911133 C67.9573161,43.129069 67.7978109,42.6334635 67.7978109,41.9042969 C67.7978109,41.5852865 67.8547771,41.1409505 67.9687094,40.5712891 C68.0826417,40.0016276 68.2421469,39.3636068 68.447225,38.6572266 C68.6523031,37.9508464 68.8972576,37.2045898 69.1820883,36.418457 C69.466919,35.6323242 69.7688396,34.851888 70.08785,34.0771484 C70.4068604,33.3024089 70.7486573,32.561849 71.1132406,31.8554688 C71.477824,31.1490885 71.8310141,30.5224609 72.1728109,29.9755859 C72.9475505,28.7679036 73.665324,27.7254232 74.3261313,26.8481445 C74.9869385,25.9708659 75.6135661,25.2416992 76.2060141,24.6606445 C76.798462,24.0795898 77.3624268,23.6523438 77.8979086,23.3789063 C78.4333904,23.1054688 78.9631755,22.96875 79.4872641,22.96875 C80.1480714,22.96875 80.7120362,23.0826823 81.1791586,23.3105469 C81.646281,23.5384115 81.8798422,23.914388 81.8798422,24.4384766 C81.8798422,24.6663411 81.8570557,24.860026 81.8114828,25.0195313 C81.7659099,25.1790365 81.6747641,25.3442383 81.5380453,25.5151367 C81.4013266,25.6860352 81.2247315,25.8968099 81.0082602,26.1474609 C80.7917888,26.398112 80.5126547,26.7171224 80.1708578,27.1044922 C79.1454672,28.2666016 78.2966716,29.2635091 77.6244711,30.0952148 C76.9522706,30.9269206 76.3769125,31.7073568 75.8983969,32.4365234 C75.4198813,33.1656901 74.9983318,33.8834635 74.6337484,34.5898438 C74.2691651,35.296224 73.8817953,36.1051432 73.4716391,37.0166016 C74.1324464,36.241862 74.9071859,35.4614258 75.7958578,34.675293 C76.6845297,33.8891602 77.6985271,33.137207 78.83785,32.4194336 C79.9771729,31.7016602 81.2532146,31.0294596 82.665975,30.402832 C84.0787354,29.7762044 85.6396078,29.235026 87.3485922,28.7792969 C88.2372641,26.8652344 88.977824,25.4125977 89.5702719,24.4213867 C90.1627198,23.4301758 90.6412354,22.672526 91.0058188,22.1484375 C91.5754802,21.3053385 92.2932536,20.8837891 93.1591391,20.8837891 C93.455363,20.8837891 93.7174073,21.0091146 93.9452719,21.2597656 C94.1731365,21.5104167 94.372518,21.8294271 94.5434164,22.2167969 C94.7143148,22.6041667 94.8510336,23.0371094 94.9535727,23.515625 C95.0561117,23.9941406 95.1301677,24.461263 95.1757406,24.9169922 C95.1757406,25.0992839 95.0902914,25.3214518 94.919393,25.5834961 C94.7484945,25.8455404 94.5320232,26.1417643 94.2699789,26.472168 C94.0079346,26.8025716 93.7231039,27.1500651 93.4154867,27.5146484 C93.1078695,27.8792318 92.8287354,28.2324219 92.5780844,28.5742188 C92.5780844,29.3717448 92.4869385,30.0439453 92.3046469,30.5908203 C92.2362875,30.7503255 92.1565349,30.9041341 92.0653891,31.0522461 C91.9742432,31.2003581 91.8318279,31.3541667 91.638143,31.5136719 C91.4444581,31.6731771 91.1824138,31.8497721 90.8520102,32.043457 C90.5216065,32.2371419 90.0829672,32.4593099 89.5360922,32.7099609 C89.4677328,32.8694661 89.3253174,33.108724 89.1088461,33.4277344 C88.8923747,33.7467448 88.6759034,34.1113281 88.459432,34.5214844 C88.2429607,34.9316406 88.0492758,35.3645833 87.8783773,35.8203125 C87.7074789,36.2760417 87.6220297,36.7203776 87.6220297,37.1533203 C87.6220297,37.6090495 87.735962,37.9508464 87.9638266,38.1787109 C88.1916911,38.4065755 88.4879151,38.5205078 88.8524984,38.5205078 C89.1942953,38.5205078 89.5645753,38.4407552 89.9633383,38.28125 C90.3621013,38.1217448 90.8463135,37.8540039 91.415975,37.4780273 C91.9856365,37.1020508 92.6749268,36.6121419 93.4838461,36.0083008 C94.2927654,35.4044596 95.2668865,34.6582031 96.4062094,33.7695313 L96.4062094,36.1279297 Z" id="Path" stroke="none" fill="#FFFFFF" fill-rule="nonzero"></path>
                    <path d="M112.27533,31.5820313 C108.971293,35.9570313 106.459086,39.0673828 104.738709,40.9130859 C103.018331,42.7587891 101.611267,43.6816406 100.517517,43.6816406 C99.6516318,43.6816406 98.8541057,43.3227539 98.1249391,42.6049805 C97.3957724,41.887207 96.8318076,40.9187826 96.4330445,39.699707 C96.0342815,38.4806315 95.8349,37.1761068 95.8349,35.7861328 C95.8349,34.8746745 95.9203492,34.054362 96.0912477,33.3251953 C96.2621461,32.5960286 96.5868531,31.792806 97.0653688,30.9155273 C97.5438844,30.0382487 98.1762086,29.0869141 98.9623414,28.0615234 C99.7484742,27.0361328 100.711202,25.8740234 101.850525,24.5751953 C102.534119,23.7776693 103.109477,23.1054688 103.576599,22.5585938 C104.043722,22.0117188 104.499451,21.6414388 104.943787,21.4477539 C105.388123,21.254069 106.111593,21.1572266 107.114197,21.1572266 C107.843364,21.1572266 108.538351,21.254069 109.199158,21.4477539 C109.859965,21.6414388 110.190369,21.8408203 110.190369,22.0458984 C110.190369,22.4560547 109.854268,23.1966146 109.182068,24.2675781 C108.509867,25.3385417 107.427511,26.6430664 105.934998,28.1811523 C104.442485,29.7192383 102.71641,31.2288411 100.756775,32.7099609 C100.323832,34.054362 100.107361,35.0797526 100.107361,35.7861328 C100.107361,36.7659505 100.483338,37.2558594 101.235291,37.2558594 C101.508728,37.2558594 101.964457,37.0222982 102.602478,36.5551758 C103.240499,36.0880534 104.317159,35.1879883 105.832459,33.8549805 C107.347758,32.5219727 108.709249,31.3427734 109.916931,30.3173828 C110.805603,29.5426432 111.83669,28.3862305 113.010193,26.8481445 C114.183696,25.3100586 115.13503,24.1536458 115.864197,23.3789063 C117.550395,21.6015625 118.701111,20.4451497 119.316345,19.909668 C119.93158,19.3741862 120.524028,19.1064453 121.093689,19.1064453 C121.640564,19.1064453 122.010844,19.2773438 122.204529,19.6191406 C122.398214,19.9609375 122.495056,20.6559245 122.495056,21.7041016 C122.495056,22.1826172 122.449483,22.569987 122.358338,22.8662109 C122.267192,23.1624349 122.079203,23.5441081 121.794373,24.0112305 C121.509542,24.4783529 120.934184,25.3385417 120.068298,26.5917969 C119.202413,27.8450521 118.177022,29.3261719 116.992127,31.0351563 C116.354106,31.9466146 115.795838,32.9435221 115.317322,34.0258789 C114.838806,35.1082357 114.599548,35.9228516 114.599548,36.4697266 C114.599548,37.6546224 115.066671,38.2470703 116.000916,38.2470703 C116.775655,38.2470703 117.67572,37.9280599 118.701111,37.2900391 C119.726502,36.6520182 121.298767,35.5013021 123.417908,33.8378906 L123.417908,36.1279297 C120.751892,38.5888672 118.780864,40.3776042 117.504822,41.4941406 C116.22878,42.6106771 115.123637,43.453776 114.189392,44.0234375 C113.255147,44.593099 112.366476,44.8779297 111.523377,44.8779297 C109.609314,44.8779297 108.652283,43.7386068 108.652283,41.4599609 C108.652283,40.5940755 108.937114,39.4262695 109.506775,37.956543 C110.076436,36.4868164 110.999288,34.3619792 112.27533,31.5820313 Z" id="Path" stroke="none" fill="#FFFFFF" fill-rule="nonzero"></path>
                    <path d="M140.620036,31.5820313 C138.956624,33.7923177 137.441325,35.6665039 136.074138,37.2045898 C134.70695,38.7426758 133.482178,39.9902344 132.399821,40.9472656 C131.317464,41.9042969 130.371826,42.5992839 129.562907,43.0322266 C128.753988,43.4651693 128.064697,43.6816406 127.495036,43.6816406 C126.857015,43.6816406 126.253174,43.4765625 125.683513,43.0664063 C125.113851,42.65625 124.618246,42.0979818 124.196696,41.3916016 C123.775147,40.6852214 123.439046,39.8649089 123.188395,38.9306641 C122.937744,37.9964193 122.812419,37.0166016 122.812419,35.9912109 C122.812419,35.0797526 122.914958,34.2081706 123.120036,33.3764648 C123.325114,32.5447591 123.661214,31.6959635 124.128337,30.8300781 C124.595459,29.9641927 125.210693,29.0299479 125.97404,28.0273438 C126.737386,27.0247396 127.688721,25.8740234 128.828044,24.5751953 L130.537028,22.5585938 C130.787679,22.2623698 131.015544,22.023112 131.220622,21.8408203 C131.4257,21.6585286 131.659261,21.5161133 131.921305,21.4135742 C132.18335,21.3110352 132.48527,21.2426758 132.827067,21.2084961 C133.168864,21.1743164 133.590414,21.1572266 134.091716,21.1572266 C134.433513,21.1572266 134.781006,21.1857096 135.134196,21.2426758 C135.487386,21.2996419 135.81779,21.3680013 136.125407,21.4477539 C136.433024,21.5275065 136.683675,21.624349 136.87736,21.7382813 C137.071045,21.8522135 137.167888,21.9547526 137.167888,22.0458984 C137.167888,22.3649089 136.957113,22.8889974 136.535563,23.6181641 C136.114014,24.3473307 135.498779,25.2018229 134.68986,26.1816406 C133.880941,27.1614583 132.895427,28.215332 131.733317,29.3432617 C130.571208,30.4711914 129.2382,31.5934245 127.734294,32.7099609 C127.301351,33.9860026 127.08488,35.0113932 127.08488,35.7861328 C127.08488,36.7659505 127.460856,37.2558594 128.212809,37.2558594 C128.349528,37.2558594 128.594483,37.2045898 128.947673,37.1020508 C129.300863,36.9995117 129.733805,36.8229167 130.246501,36.5722656 C130.759196,36.3216146 131.345947,35.9798177 132.006755,35.546875 C132.667562,35.1139323 133.385335,34.5556641 134.160075,33.8720703 L138.261638,30.3173828 C138.649007,29.9755859 139.121826,29.4856771 139.680095,28.8476563 C140.238363,28.2096354 140.796631,27.5374349 141.354899,26.8310547 C141.913167,26.1246745 142.448649,25.4581706 142.961345,24.831543 C143.47404,24.2049154 143.889893,23.7207031 144.208903,23.3789063 C145.074789,22.4446615 145.781169,21.6984049 146.328044,21.1401367 C146.874919,20.5818685 147.330648,20.1489258 147.695231,19.8413086 C148.059815,19.5336914 148.367432,19.3343099 148.618083,19.2431641 C148.868734,19.1520182 149.142171,19.1064453 149.438395,19.1064453 C149.98527,19.1064453 150.35555,19.2773438 150.549235,19.6191406 C150.74292,19.9609375 150.839763,20.6559245 150.839763,21.7041016 C150.839763,22.1598307 150.771403,22.5870768 150.634684,22.9858398 C150.497966,23.3846029 150.235921,23.8972982 149.848552,24.5239258 C149.461182,25.1505534 148.902914,25.9765625 148.173747,27.0019531 C147.44458,28.0273438 146.498942,29.3717448 145.336833,31.0351563 C145.017822,31.4908854 144.704509,32.0092773 144.396891,32.590332 C144.089274,33.1713867 143.81014,33.7695313 143.559489,34.3847656 C143.399984,34.7721354 143.234782,35.2620443 143.063884,35.8544922 C142.892985,36.4469401 142.807536,37.0166016 142.807536,37.5634766 C142.807536,37.9736328 142.870199,38.3439128 142.995524,38.6743164 C143.12085,39.0047201 143.343018,39.2724609 143.662028,39.4775391 C144.072184,39.3180339 144.56779,39.0388997 145.148845,38.6401367 C145.729899,38.2413737 146.293864,37.8483073 146.840739,37.4609375 C147.364828,37.0735677 148.025635,36.6007487 148.823161,36.0424805 C149.620687,35.4842122 150.600505,34.749349 151.762614,33.8378906 L151.762614,36.1279297 C150.600505,37.1761068 149.461182,38.2128906 148.344645,39.2382813 C147.228109,40.2636719 146.077393,41.2890625 144.892497,42.3144531 C144.960856,42.5195313 145.023519,42.7758789 145.080485,43.0834961 C145.137451,43.3911133 145.165934,43.7158203 145.165934,44.0576172 C145.165934,45.6982422 144.505127,47.1565755 143.183513,48.4326172 C141.861898,49.7086589 139.925049,50.9960938 137.372966,52.2949219 C137.304606,52.3404948 137.116618,52.4145508 136.809001,52.5170898 C136.501384,52.6196289 136.125407,52.722168 135.681071,52.824707 C135.236735,52.9272461 134.75822,53.0183919 134.245524,53.0981445 C133.732829,53.1778971 133.237223,53.2177734 132.758708,53.2177734 C131.026937,53.2177734 130.161052,52.6367188 130.161052,51.4746094 C130.161052,50.9277344 130.354736,50.3751628 130.742106,49.8168945 C131.129476,49.2586263 131.619385,48.7174479 132.211833,48.1933594 C132.804281,47.6692708 133.465088,47.1679688 134.194255,46.6894531 C134.923421,46.2109375 135.629802,45.7609049 136.313395,45.3393555 C136.996989,44.917806 137.612223,44.5304362 138.159098,44.1772461 C138.705973,43.824056 139.093343,43.5335286 139.321208,43.3056641 C138.797119,42.8955078 138.347087,42.3885091 137.97111,41.784668 C137.595134,41.1808268 137.407145,40.5143229 137.407145,39.7851563 C137.407145,39.2154948 137.486898,38.6572266 137.646403,38.1103516 C137.805908,37.5634766 138.02238,36.9710286 138.295817,36.3330078 C138.569255,35.694987 138.905355,34.9943034 139.304118,34.230957 C139.702881,33.4676107 140.14152,32.5846354 140.620036,31.5820313 Z M140.551677,45.4931641 C140.164307,45.9033203 139.742757,46.2736003 139.287028,46.6040039 C138.831299,46.9344076 138.409749,47.2306315 138.02238,47.4926758 C137.63501,47.7547201 137.310303,47.9939779 137.048259,48.2104492 C136.786214,48.4269206 136.655192,48.6263021 136.655192,48.8085938 C136.655192,48.922526 136.695068,49.0250651 136.774821,49.1162109 C136.854574,49.2073568 137.042562,49.2529297 137.338786,49.2529297 C137.657796,49.2529297 137.982503,49.1219076 138.312907,48.8598633 C138.643311,48.597819 138.950928,48.2788086 139.235759,47.902832 C139.520589,47.5268555 139.776937,47.1223958 140.004802,46.6894531 C140.232666,46.2565104 140.414958,45.8577474 140.551677,45.4931641 Z" id="Shape" stroke="none" fill="#FFFFFF" fill-rule="nonzero"></path>
                    <path d="M155.566305,27.7880859 C159.029846,24.6435547 162.390849,22.3079427 165.649313,20.78125 C168.907776,19.2545573 171.42568,18.4912109 173.203023,18.4912109 C173.681539,18.4912109 174.125875,18.6905924 174.536031,19.0893555 C174.946188,19.4881185 175.270895,19.9495443 175.510152,20.4736328 C175.74941,20.9977214 175.869039,21.3850911 175.869039,21.6357422 C175.869039,22.0458984 175.709534,22.347819 175.390523,22.5415039 C175.071513,22.7351888 174.513245,22.96875 173.715719,23.2421875 C173.875224,23.6067708 174.080302,24.0738932 174.330953,24.6435547 C174.581604,25.2132161 174.775289,25.6746419 174.912008,26.027832 C175.048727,26.3810221 175.117086,26.6943359 175.117086,26.9677734 C175.117086,27.5146484 174.564514,28.5343424 173.459371,30.0268555 C172.354228,31.5193685 171.579488,32.6188151 171.135152,33.3251953 C170.690816,34.0315755 170.468648,34.8974609 170.468648,35.9228516 C170.468648,37.6090495 171.243388,38.4521484 172.792867,38.4521484 C174.387919,38.4521484 176.883036,36.9596354 180.278219,33.9746094 L180.278219,36.0595703 C174.513245,42.4625651 170.388896,45.6640625 167.905172,45.6640625 C167.0165,45.6640625 166.384176,45.3735352 166.008199,44.7924805 C165.632223,44.2114258 165.444234,43.351237 165.444234,42.2119141 C165.444234,40.4117839 166.093648,37.8027344 167.392477,34.3847656 C164.065654,38.0761719 161.593323,40.7023112 159.975484,42.2631836 C158.357646,43.824056 157.024638,44.6044922 155.976461,44.6044922 C155.475159,44.6044922 154.848531,44.1715495 154.096578,43.3056641 C153.344625,42.4397786 152.678121,41.3175456 152.097066,39.9389648 C151.516012,38.5603841 151.225484,37.1305339 151.225484,35.6494141 C151.225484,34.5784505 151.328023,33.684082 151.533102,32.9663086 C151.73818,32.2485352 152.136943,31.5136719 152.729391,30.7617188 C153.321839,30.0097656 154.267477,29.0185547 155.566305,27.7880859 Z M171.938375,24.0283203 C166.013896,26.7399089 161.792704,29.0413411 159.274801,30.9326172 C156.756897,32.8238932 155.497945,34.7721354 155.497945,36.7773438 C155.497945,37.5065104 155.623271,38.1046549 155.873922,38.5717773 C156.124573,39.0388997 156.46637,39.2724609 156.899313,39.2724609 C157.149964,39.2724609 157.594299,39.1129557 158.23232,38.7939453 C160.624898,37.3811849 162.812398,35.5411784 164.79482,33.2739258 C166.777242,31.0066732 169.158427,27.9248047 171.938375,24.0283203 Z" id="Shape" stroke="none" fill="#FFFFFF" fill-rule="nonzero"></path>
                    <path d="M220.287944,33.9746094 L220.287944,36.2646484 C217.849793,38.6572266 215.861674,40.5143229 214.323588,41.8359375 C212.785502,43.1575521 211.349955,44.1829427 210.016948,44.9121094 C208.68394,45.641276 207.379415,46.0058594 206.103373,46.0058594 C204.850118,46.0058594 203.699402,45.5102539 202.651225,44.519043 C201.603048,43.527832 200.782735,42.2290039 200.190288,40.6225586 C199.59784,39.0161133 199.301616,37.3128255 199.301616,35.5126953 C199.301616,33.9632161 199.643413,32.5846354 200.327006,31.3769531 C201.0106,30.1692708 202.332215,28.6083984 204.29185,26.6943359 C206.616069,24.4156901 208.775086,22.6554362 210.768901,21.4135742 C212.762716,20.1717122 214.329285,19.5507813 215.468608,19.5507813 C216.28892,19.5507813 216.983907,19.835612 217.553569,20.4052734 C218.12323,20.9749349 218.408061,21.6927083 218.408061,22.5585938 C218.408061,23.2877604 218.032084,24.3245443 217.280131,25.6689453 C216.528178,27.0133464 215.685079,28.1811523 214.750834,29.1723633 C213.81659,30.1635742 213.07603,30.6591797 212.529155,30.6591797 C211.936707,30.6591797 211.640483,30.3401693 211.640483,29.7021484 C211.663269,29.5198568 211.680359,29.3489583 211.691752,29.1894531 C211.703146,29.0299479 211.708842,28.8704427 211.708842,28.7109375 C211.708842,28.4375 211.612,28.2836914 211.418315,28.2495117 C211.22463,28.215332 210.991069,28.3007813 210.717631,28.5058594 C208.438985,30.1009115 206.878113,31.2231445 206.035014,31.8725586 C205.191915,32.5219727 204.525411,33.1770833 204.035502,33.8378906 C203.545593,34.4986979 203.300639,35.1936849 203.300639,35.9228516 C203.300639,37.2672526 203.733582,38.3610026 204.599467,39.2041016 C205.465353,40.0472005 206.593282,40.46875 207.983256,40.46875 C209.418803,40.46875 211.144877,39.9161784 213.161479,38.8110352 C215.17808,37.7058919 217.553569,36.09375 220.287944,33.9746094 Z" id="Path" stroke="none" fill="#FFFFFF" fill-rule="nonzero"></path>
                    <path d="M268.022278,36.1962891 C265.470195,39.226888 263.328268,41.4998372 261.596497,43.0151367 C259.864726,44.5304362 258.417786,45.2880859 257.255677,45.2880859 C256.435364,45.2880859 255.689108,45.1285807 255.016907,44.8095703 C254.344707,44.4905599 253.700989,43.9892578 253.085755,43.3056641 C252.47052,42.6220703 251.855286,41.7390951 251.240052,40.6567383 C250.624817,39.5743815 249.96401,38.2584635 249.25763,36.7089844 C247.890442,38.3040365 246.802389,39.5572917 245.99347,40.46875 C245.18455,41.3802083 244.546529,42.0638021 244.079407,42.5195313 C243.612285,42.9752604 243.270488,43.2600911 243.054016,43.3740234 C242.837545,43.4879557 242.638164,43.5449219 242.455872,43.5449219 C242.091289,43.5449219 241.732402,43.3284505 241.379212,42.8955078 C241.026022,42.4625651 240.712708,41.887207 240.43927,41.1694336 C240.165833,40.4516602 239.943665,39.6484375 239.772766,38.7597656 C239.601868,37.8710938 239.516419,36.9596354 239.516419,36.0253906 C239.516419,35.5696615 239.527812,35.1538086 239.550598,34.777832 C239.573385,34.4018555 239.653138,33.9973958 239.789856,33.5644531 C239.926575,33.1315104 240.13735,32.6359049 240.42218,32.0776367 C240.707011,31.5193685 241.122864,30.8186849 241.669739,29.9755859 C243.219218,27.5602214 244.563619,25.7885742 245.702942,24.6606445 C246.842265,23.5327148 247.936015,22.96875 248.984192,22.96875 C249.644999,22.96875 250.208964,23.0826823 250.676087,23.3105469 C251.143209,23.5384115 251.37677,23.914388 251.37677,24.4384766 C251.37677,24.6663411 251.353984,24.860026 251.308411,25.0195313 C251.262838,25.1790365 251.177389,25.3499349 251.052063,25.5322266 C250.926738,25.7145182 250.750143,25.925293 250.522278,26.1645508 C250.294414,26.4038086 250.009583,26.7171224 249.667786,27.1044922 C247.799296,29.1780599 246.426412,30.8528646 245.549134,32.1289063 C244.671855,33.4049479 244.233216,34.3505859 244.233216,34.9658203 C244.233216,35.2620443 244.301575,35.4842122 244.438294,35.6323242 C244.575013,35.7804362 244.734518,35.8544922 244.916809,35.8544922 C245.076315,35.8544922 245.366842,35.694987 245.788391,35.3759766 C246.209941,35.0569661 246.688457,34.6525065 247.223938,34.1625977 C247.75942,33.6726888 248.329082,33.1315104 248.932923,32.5390625 C249.536764,31.9466146 250.112122,31.3712565 250.658997,30.8129883 C251.205872,30.2547201 251.684388,29.7648112 252.094544,29.3432617 C252.5047,28.9217122 252.800924,28.6197917 252.983216,28.4375 C255.831523,25.6347656 258.229798,23.5555013 260.17804,22.199707 C262.126282,20.8439128 263.715638,20.1660156 264.946106,20.1660156 C265.287903,20.1660156 265.59552,20.2742513 265.868958,20.4907227 C266.142395,20.707194 266.375957,21.003418 266.569641,21.3793945 C266.763326,21.7553711 266.911438,22.1883138 267.013977,22.6782227 C267.116516,23.1681315 267.167786,23.6865234 267.167786,24.2333984 C267.167786,25.3499349 266.939921,26.4095052 266.484192,27.4121094 C266.028463,28.4147135 265.322083,29.4173177 264.365052,30.4199219 C263.40802,31.422526 262.194641,32.4650065 260.724915,33.5473633 C259.255188,34.6297201 257.506328,35.797526 255.478333,37.0507813 C256.161927,38.0761719 256.765768,38.8224284 257.289856,39.2895508 C257.813945,39.7566732 258.474752,39.9902344 259.272278,39.9902344 C259.77358,39.9902344 260.274882,39.8933919 260.776184,39.699707 C261.277486,39.5060221 261.852845,39.1756185 262.502259,38.7084961 C263.151673,38.2413737 263.915019,37.6204427 264.792298,36.8457031 C265.669576,36.0709635 266.746236,35.0911458 268.022278,33.90625 L268.022278,36.1962891 Z M254.521302,35.6494141 C255.250468,35.1708984 256.070781,34.5214844 256.982239,33.7011719 C257.893697,32.8808594 258.753886,32.014974 259.562805,31.1035156 C260.371725,30.1920573 261.049622,29.2976888 261.596497,28.4204102 C262.143372,27.5431315 262.416809,26.796875 262.416809,26.1816406 C262.416809,25.7259115 262.257304,25.4980469 261.938294,25.4980469 C261.528138,25.4980469 260.924296,25.7259115 260.12677,26.1816406 C259.329244,26.6373698 258.440572,27.2639974 257.460755,28.0615234 C256.480937,28.8590495 255.455546,29.7989909 254.384583,30.8813477 C253.313619,31.9637044 252.288229,33.1315104 251.308411,34.3847656 C252.197083,34.3847656 253.268046,34.8063151 254.521302,35.6494141 Z" id="Shape" stroke="none" fill="#FFFFFF" fill-rule="nonzero"></path>
                    <path d="M284.609172,25.9423828 C284.153443,26.8310547 283.532512,27.7709961 282.746379,28.762207 C281.960246,29.753418 281.185507,30.7788086 280.42216,31.8383789 C279.658814,32.8979492 278.998007,33.9746094 278.439738,35.0683594 C277.88147,36.1621094 277.602336,37.2444661 277.602336,38.3154297 C277.602336,38.8167318 277.750448,39.2211914 278.046672,39.5288086 C278.342896,39.8364258 278.889771,39.9902344 279.687297,39.9902344 C280.667115,39.9902344 282.30774,39.1471354 284.609172,37.4609375 C284.335734,36.3671875 284.199016,35.3645833 284.199016,34.453125 C284.199016,34.2708333 284.221802,33.9518229 284.267375,33.4960938 C284.312948,33.0403646 284.398397,32.5333659 284.523723,31.9750977 C284.649048,31.4168294 284.825643,30.8357747 285.053508,30.2319336 C285.281372,29.6280924 285.58899,29.0755208 285.976359,28.5742188 C286.363729,28.0729167 286.830852,27.6627604 287.377727,27.34375 C287.924602,27.0247396 288.585409,26.8652344 289.360148,26.8652344 C290.157674,26.8652344 290.772909,27.0076497 291.205852,27.2924805 C291.638794,27.5773112 291.855266,28.1184896 291.855266,28.9160156 C291.855266,29.8730469 291.633098,30.8984375 291.188762,31.9921875 C290.744426,33.0859375 290.134888,34.2822266 289.360148,35.5810547 C289.382935,35.7633464 289.502564,35.9114583 289.719035,36.0253906 C289.935507,36.1393229 290.191854,36.1962891 290.488078,36.1962891 C291.080526,36.1962891 291.678671,35.9855143 292.282512,35.5639648 C292.886353,35.1424154 293.655396,34.5670573 294.589641,33.8378906 L294.589641,36.1279297 C293.906047,36.7659505 293.307902,37.3014323 292.795207,37.734375 C292.282512,38.1673177 291.786906,38.5205078 291.308391,38.7939453 C290.829875,39.0673828 290.328573,39.2667643 289.804484,39.3920898 C289.280396,39.5174154 288.665161,39.5800781 287.958781,39.5800781 C287.685344,39.5800781 287.377727,39.523112 287.03593,39.4091797 C284.07369,42.9182943 281.476034,44.6728516 279.242961,44.6728516 C278.536581,44.6728516 277.887167,44.5304362 277.294719,44.2456055 C276.702271,43.9607747 276.195272,43.5791016 275.773723,43.1005859 C275.352173,42.6220703 275.02177,42.0581055 274.782512,41.4086914 C274.543254,40.7592773 274.423625,40.0585938 274.423625,39.3066406 C274.423625,38.4407552 274.531861,37.438151 274.748332,36.2988281 C274.964803,35.1595052 275.346477,34.0771484 275.893352,33.0517578 C276.622518,31.6845703 277.334595,30.5680339 278.029582,29.7021484 C278.724569,28.836263 279.299927,28.1298828 279.755656,27.5830078 C279.641724,27.3779297 279.430949,27.1044922 279.123332,26.7626953 C278.815715,26.4208984 278.485311,26.0734049 278.132121,25.7202148 C277.778931,25.3670247 277.425741,25.0309245 277.072551,24.7119141 C276.719361,24.3929036 276.45162,24.1650391 276.269328,24.0283203 C275.927531,24.6891276 275.500285,25.5322266 274.98759,26.5576172 C274.474895,27.5830078 273.85966,28.6767578 273.141887,29.8388672 C272.424113,31.0009766 271.603801,32.1687826 270.680949,33.3422852 C269.758098,34.5157878 268.715617,35.5810547 267.553508,36.5380859 L267.553508,34.3164063 C268.145956,33.610026 268.658651,32.960612 269.091594,32.3681641 C269.524536,31.7757161 269.911906,31.2402344 270.253703,30.7617188 C271.074016,29.5540365 271.803182,28.215332 272.441203,26.7456055 C273.079224,25.2758789 273.740031,23.8688151 274.423625,22.5244141 C273.671672,21.9091797 273.295695,21.476237 273.295695,21.2255859 C273.295695,21.0432943 273.381145,20.8382161 273.552043,20.6103516 C273.722941,20.382487 273.933716,20.1546224 274.184367,19.9267578 C274.435018,19.6988932 274.691366,19.4824219 274.95341,19.2773438 C275.215454,19.0722656 275.449016,18.9013672 275.654094,18.7646484 C275.927531,18.5823568 276.269328,18.4057617 276.679484,18.2348633 C277.089641,18.0639648 277.499797,17.9785156 277.909953,17.9785156 C278.25175,17.9785156 278.724569,18.0183919 279.32841,18.0981445 C279.932251,18.1778971 280.462036,18.4000651 280.917766,18.7646484 C281.897583,19.5621745 282.683716,20.2571615 283.276164,20.8496094 C283.868612,21.4420573 284.318645,21.949056 284.626262,22.3706055 C284.933879,22.7921549 285.13326,23.1339518 285.224406,23.3959961 C285.315552,23.6580404 285.361125,23.8574219 285.361125,23.9941406 C285.361125,24.2675781 285.281372,24.5638021 285.121867,24.8828125 C284.962362,25.2018229 284.791464,25.555013 284.609172,25.9423828 Z" id="Path" stroke="none" fill="#FFFFFF" fill-rule="nonzero"></path>
                    <path d="M314.97048,33.9746094 L314.97048,36.2646484 C312.532329,38.6572266 310.54421,40.5143229 309.006124,41.8359375 C307.468038,43.1575521 306.032491,44.1829427 304.699484,44.9121094 C303.366476,45.641276 302.061951,46.0058594 300.785909,46.0058594 C299.532654,46.0058594 298.381938,45.5102539 297.333761,44.519043 C296.285584,43.527832 295.465271,42.2290039 294.872823,40.6225586 C294.280376,39.0161133 293.984152,37.3128255 293.984152,35.5126953 C293.984152,33.9632161 294.325948,32.5846354 295.009542,31.3769531 C295.693136,30.1692708 297.014751,28.6083984 298.974386,26.6943359 C301.298605,24.4156901 303.457622,22.6554362 305.451437,21.4135742 C307.445252,20.1717122 309.011821,19.5507813 310.151144,19.5507813 C310.971456,19.5507813 311.666443,19.835612 312.236105,20.4052734 C312.805766,20.9749349 313.090597,21.6927083 313.090597,22.5585938 C313.090597,23.2877604 312.71462,24.3245443 311.962667,25.6689453 C311.210714,27.0133464 310.367615,28.1811523 309.43337,29.1723633 C308.499126,30.1635742 307.758566,30.6591797 307.211691,30.6591797 C306.619243,30.6591797 306.323019,30.3401693 306.323019,29.7021484 C306.345805,29.5198568 306.362895,29.3489583 306.374288,29.1894531 C306.385682,29.0299479 306.391378,28.8704427 306.391378,28.7109375 C306.391378,28.4375 306.294536,28.2836914 306.100851,28.2495117 C305.907166,28.215332 305.673605,28.3007813 305.400167,28.5058594 C303.121521,30.1009115 301.560649,31.2231445 300.71755,31.8725586 C299.874451,32.5219727 299.207947,33.1770833 298.718038,33.8378906 C298.228129,34.4986979 297.983175,35.1936849 297.983175,35.9228516 C297.983175,37.2672526 298.416118,38.3610026 299.282003,39.2041016 C300.147889,40.0472005 301.275818,40.46875 302.665792,40.46875 C304.101339,40.46875 305.827413,39.9161784 307.844015,38.8110352 C309.860616,37.7058919 312.236105,36.09375 314.97048,33.9746094 Z" id="Path" stroke="none" fill="#FFFFFF" fill-rule="nonzero"></path>
                    <path d="M356.850342,36.1279297 C355.209717,37.7457682 353.785564,39.124349 352.577881,40.2636719 C351.370199,41.4029948 350.310629,42.3372396 349.39917,43.0664063 C348.487712,43.7955729 347.695883,44.3253581 347.023682,44.6557617 C346.351482,44.9861654 345.730551,45.1513672 345.160889,45.1513672 C344.340577,45.1513672 343.662679,44.8779297 343.127198,44.3310547 C342.591716,43.7841797 342.323975,42.9296875 342.323975,41.7675781 C342.323975,40.9016927 342.540446,39.8421224 342.973389,38.5888672 C343.406332,37.335612 344.169678,35.8089193 345.263428,34.0087891 C345.605225,33.4619141 345.998291,32.8125 346.442627,32.0605469 C346.886963,31.3085938 347.325603,30.550944 347.758545,29.7875977 C348.191488,29.0242513 348.567465,28.3121745 348.886475,27.6513672 C349.205485,26.9905599 349.39917,26.4892578 349.46753,26.1474609 C348.123129,27.0817057 346.932536,28.0558268 345.895752,29.0698242 C344.858968,30.0838216 343.782308,31.1490885 342.665772,32.265625 C341.503662,33.4049479 340.352946,34.5613607 339.213623,35.7348633 C338.074301,36.9083659 336.991944,38.0761719 335.966553,39.2382813 C334.50822,40.8789063 333.334717,42.1150716 332.446045,42.9467773 C331.557373,43.7784831 330.725668,44.1943359 329.950928,44.1943359 C329.472412,44.1943359 329.050863,44.0120443 328.68628,43.6474609 C328.321696,43.2828776 328.139405,42.7473958 328.139405,42.0410156 C328.139405,41.5397135 328.321696,40.7592773 328.68628,39.699707 C329.050863,38.6401367 329.563558,37.4153646 330.224366,36.0253906 C330.566162,35.296224 330.885173,34.6297201 331.181397,34.0258789 C331.477621,33.4220378 331.762452,32.7783203 332.035889,32.0947266 C332.309327,31.4111328 332.571371,30.6477865 332.822022,29.8046875 C333.072673,28.9615885 333.323324,27.9361979 333.573975,26.7285156 C333.118246,27.2753906 332.719483,27.7766927 332.377686,28.2324219 C332.035889,28.688151 331.705485,29.132487 331.386475,29.5654297 C331.067465,29.9983724 330.731364,30.4370117 330.378174,30.8813477 C330.024984,31.3256836 329.620524,31.8098958 329.164795,32.3339844 C327.843181,33.8378906 326.532959,35.2905273 325.234131,36.6918945 C323.935303,38.0932617 322.773194,39.3066406 321.747803,40.3320313 C321.155355,40.9244792 320.64266,41.4257813 320.209717,41.8359375 C319.776774,42.2460938 319.395101,42.5764974 319.064698,42.8271484 C318.734294,43.0777995 318.43807,43.2600911 318.176026,43.3740234 C317.913982,43.4879557 317.669027,43.5449219 317.441162,43.5449219 C317.076579,43.5449219 316.717692,43.3284505 316.364502,42.8955078 C316.011312,42.4625651 315.697998,41.887207 315.424561,41.1694336 C315.151123,40.4516602 314.928955,39.6484375 314.758057,38.7597656 C314.587159,37.8710938 314.501709,36.9596354 314.501709,36.0253906 C314.501709,35.4101563 314.575765,34.7664388 314.723877,34.0942383 C314.871989,33.4220378 315.111247,32.8125 315.441651,32.265625 C315.772054,31.71875 316.199301,31.2630208 316.723389,30.8984375 C317.247478,30.5338542 317.874105,30.3515625 318.603272,30.3515625 C319.264079,30.3515625 319.822347,30.4654948 320.278077,30.6933594 C320.733806,30.921224 320.96167,31.2858073 320.96167,31.7871094 C320.96167,32.014974 320.876221,32.2542318 320.705323,32.5048828 C320.534424,32.7555339 320.346436,33.0004883 320.141358,33.2397461 C319.93628,33.4790039 319.742595,33.7125651 319.560303,33.9404297 C319.378011,34.1682943 319.275472,34.3733724 319.252686,34.5556641 C319.229899,34.5784505 319.218506,34.6923828 319.218506,34.8974609 C319.218506,35.2848307 319.338135,35.5525716 319.577393,35.7006836 C319.816651,35.8487956 320.027426,35.9228516 320.209717,35.9228516 C320.392009,35.9228516 320.916097,35.5126953 321.781983,34.6923828 C322.647868,33.8720703 323.718832,32.7897135 324.994873,31.4453125 C326.293702,30.078125 327.57544,28.5286458 328.840088,26.796875 C330.104737,25.0651042 331.523194,23.2307943 333.095459,21.2939453 C333.437256,20.8837891 333.773357,20.4964193 334.10376,20.1318359 C334.434164,19.7672526 334.781657,19.4482422 335.146241,19.1748047 C335.510824,18.9013672 335.909587,18.6848958 336.34253,18.5253906 C336.775472,18.3658854 337.276774,18.2861328 337.846436,18.2861328 C338.005941,18.2861328 338.239502,18.4399414 338.54712,18.7475586 C338.854737,19.0551758 339.162354,19.4482422 339.469971,19.9267578 C339.777588,20.4052734 340.045329,20.9179688 340.273194,21.4648438 C340.501058,22.0117188 340.614991,22.5244141 340.614991,23.0029297 C340.614991,23.3447266 340.569418,23.6751302 340.478272,23.9941406 C340.387126,24.313151 340.250407,24.7005208 340.068116,25.15625 C339.544027,26.4550781 338.934489,27.6627604 338.239502,28.7792969 C337.544515,29.8958333 336.900798,30.9781901 336.30835,32.0263672 C335.715902,33.0517578 335.049398,34.1113281 334.308838,35.2050781 C333.568278,36.2988281 332.856202,37.4267578 332.172608,38.5888672 C333.744873,37.1988932 335.18042,35.8487956 336.479248,34.5385742 C337.778077,33.2283529 339.008545,31.9352214 340.170655,30.6591797 C341.332764,29.383138 342.454997,28.1013997 343.537354,26.8139648 C344.619711,25.5265299 345.730551,24.210612 346.869873,22.8662109 C347.21167,22.4560547 347.547771,22.0686849 347.878174,21.7041016 C348.208578,21.3395182 348.556071,21.0205078 348.920655,20.7470703 C349.285238,20.4736328 349.684001,20.2571615 350.116944,20.0976563 C350.549886,19.938151 351.051189,19.8583984 351.62085,19.8583984 C351.780355,19.8583984 352.013916,20.0179036 352.321534,20.3369141 C352.629151,20.6559245 352.936768,21.0489909 353.244385,21.5161133 C353.552002,21.9832357 353.82544,22.495931 354.064698,23.0541992 C354.303955,23.6124674 354.423584,24.1308594 354.423584,24.609375 C354.423584,24.9511719 354.360922,25.2701823 354.235596,25.5664063 C354.110271,25.8626302 353.922282,26.25 353.671631,26.7285156 C353.079183,27.8678385 352.475342,28.9388021 351.860108,29.9414063 C351.244873,30.9440104 350.680909,31.8554688 350.168213,32.6757813 C349.655518,33.4960938 349.216879,34.2252604 348.852295,34.8632813 C348.487712,35.5013021 348.259847,36.0253906 348.168702,36.4355469 C348.100342,36.7089844 348.066162,36.9482422 348.066162,37.1533203 C348.066162,37.6090495 348.180095,37.9508464 348.407959,38.1787109 C348.635824,38.4065755 348.932048,38.5205078 349.296631,38.5205078 C349.638428,38.5205078 350.008708,38.4407552 350.407471,38.28125 C350.806234,38.1217448 351.290446,37.8540039 351.860108,37.4780273 C352.429769,37.1020508 353.11906,36.6121419 353.927979,36.0083008 C354.736898,35.4044596 355.711019,34.6582031 356.850342,33.7695313 L356.850342,36.1279297 Z" id="Path" stroke="none" fill="#FFFFFF" fill-rule="nonzero"></path>
                    <path d="M362.192119,35.1367188 L362.192119,35.9912109 C362.192119,37.335612 362.522522,38.3837891 363.18333,39.1357422 C363.844137,39.8876953 364.710022,40.2636719 365.780986,40.2636719 C366.897522,40.2636719 368.053935,40.0016276 369.250224,39.4775391 C370.446513,38.9534505 371.637106,38.2584635 372.822002,37.3925781 C374.006897,36.5266927 375.453838,35.3645833 377.162822,33.90625 L377.162822,35.9912109 C374.587952,39.0901693 372.172588,41.4656576 369.916728,43.1176758 C367.660869,44.769694 365.37083,45.5957031 363.046611,45.5957031 C361.018616,45.5957031 359.412171,44.8095703 358.227275,43.2373047 C357.042379,41.6650391 356.449931,39.5117188 356.449931,36.7773438 C356.449931,34.3847656 357.008199,32.2143555 358.124736,30.2661133 C359.241272,28.3178711 361.064189,26.2613932 363.593486,24.0966797 C365.325257,22.6155599 367.045634,21.4990234 368.754619,20.7470703 C370.463603,19.9951172 371.990296,19.6191406 373.334697,19.6191406 C374.40566,19.6191406 375.254456,19.8640951 375.881084,20.3540039 C376.507711,20.8439128 376.821025,21.578776 376.821025,22.5585938 C376.821025,23.9941406 376.285543,25.4239909 375.21458,26.8481445 C374.143616,28.2722982 372.508688,29.6850586 370.309795,31.0864258 C368.110901,32.487793 365.405009,33.8378906 362.192119,35.1367188 Z M362.533916,32.9150391 C364.584697,32.117513 366.339254,31.1263021 367.797588,29.9414063 C369.255921,28.7565104 370.332581,27.6228841 371.027568,26.5405273 C371.722555,25.4581706 372.070048,24.6663411 372.070048,24.1650391 C372.070048,23.6409505 371.830791,23.3789063 371.352275,23.3789063 C370.942119,23.3789063 370.275615,23.6409505 369.352763,24.1650391 C368.429912,24.6891276 367.495667,25.3727214 366.550029,26.2158203 C365.604391,27.0589193 364.755595,28.0501302 364.003642,29.1894531 C363.251689,30.328776 362.76178,31.570638 362.533916,32.9150391 Z" id="Shape" stroke="none" fill="#FFFFFF" fill-rule="nonzero"></path>
                    <path d="M392.826864,38.5888672 C395.971395,35.8089193 398.671591,33.3878581 400.92745,31.3256836 C403.183309,29.2635091 404.954957,27.639974 406.242391,26.4550781 C407.529826,25.2701823 408.663453,24.2675781 409.64327,23.4472656 C410.623088,22.6269531 411.249716,22.2167969 411.523153,22.2167969 C412.047242,22.1940104 412.548544,22.7351888 413.027059,23.840332 C413.505575,24.9454753 413.744833,25.8284505 413.744833,26.4892578 C413.744833,26.9222005 413.021363,27.9418945 411.574423,29.5483398 C410.127483,31.1547852 409.045126,32.4365234 408.327352,33.3935547 C407.609579,34.3505859 407.250692,35.3531901 407.250692,36.4013672 C407.250692,37.0166016 407.45577,37.512207 407.865927,37.8881836 C408.276083,38.2641602 408.765992,38.4521484 409.335653,38.4521484 C409.99646,38.4521484 410.78829,38.1103516 411.711141,37.4267578 C412.633993,36.7431641 414.08663,35.5240885 416.069052,33.7695313 L416.069052,36.1962891 C414.08663,38.0647786 412.286499,39.6769206 410.668661,41.0327148 C409.050822,42.3885091 407.643759,43.4025065 406.44747,44.074707 C405.25118,44.7469076 404.254273,45.0830078 403.456747,45.0830078 C402.750367,45.0830078 402.157919,44.8152669 401.679403,44.2797852 C401.200888,43.7443034 400.96163,43.0777995 400.96163,42.2802734 C400.96163,41.5055339 401.098348,40.719401 401.371786,39.921875 C401.645223,39.124349 402.066773,38.1787109 402.636434,37.0849609 C403.206096,35.9912109 403.958049,34.675293 404.892294,33.137207 C405.826539,31.5991211 406.681031,30.1920573 407.45577,28.9160156 C405.131552,30.8072917 403.069377,32.6302083 401.269247,34.3847656 C399.469117,36.1393229 397.99939,37.6717122 396.860067,38.9819336 C395.720744,40.2921549 394.820679,41.3232422 394.159872,42.0751953 C392.88383,43.4879557 391.698934,44.1943359 390.605184,44.1943359 C389.420289,44.1943359 388.827841,43.351237 388.827841,41.6650391 C388.827841,40.9814453 389.272177,39.7566732 390.160848,37.9907227 C391.04952,36.2247721 392.314169,33.9746094 393.954794,31.2402344 C394.091513,31.0579427 394.159872,30.773112 394.159872,30.3857422 C394.159872,29.930013 393.932007,29.7021484 393.476278,29.7021484 C392.974976,29.7021484 392.251506,30.1749674 391.305868,31.1206055 C390.36023,32.0662435 388.531617,34.0429688 385.820028,37.0507813 C385.068075,37.8938802 384.219279,38.9933268 383.273641,40.3491211 C382.328003,41.7049154 381.650106,42.6106771 381.23995,43.0664063 C380.829794,43.5221354 380.419638,43.75 380.009481,43.75 C379.189169,43.75 378.425822,43.0208333 377.719442,41.5625 C377.013062,40.1041667 376.659872,38.4065755 376.659872,36.4697266 C376.659872,35.0569661 376.893433,33.8378906 377.360555,32.8125 C377.827678,31.7871094 378.551148,30.5110677 379.530966,28.984375 C381.057658,26.7740885 382.305217,25.1961263 383.273641,24.2504883 C384.242066,23.3048503 385.26176,22.8320313 386.332723,22.8320313 C386.993531,22.8320313 387.551799,22.9630534 388.007528,23.2250977 C388.463257,23.4871419 388.691122,23.8460286 388.691122,24.3017578 C388.691122,24.7802734 388.275269,25.5664063 387.443563,26.6601563 C386.611858,27.7539063 385.557984,28.8818359 384.281942,30.0439453 C383.598348,30.7047526 382.948934,31.5193685 382.3337,32.487793 C381.718466,33.4562174 381.410848,34.156901 381.410848,34.5898438 C381.410848,35.2050781 381.650106,35.5126953 382.128622,35.5126953 C382.515992,35.5126953 383.495809,34.7151693 385.068075,33.1201172 C386.640341,31.5250651 388.366415,29.7875977 390.246298,27.9077148 C392.12618,26.027832 393.869345,24.4669596 395.47579,23.2250977 C397.082235,21.9832357 398.443726,21.3623047 399.560263,21.3623047 C400.243856,21.3623047 400.807821,21.6186523 401.252157,22.1313477 C401.696493,22.644043 401.918661,23.2763672 401.918661,24.0283203 C401.918661,24.5296224 401.576864,25.4353841 400.89327,26.7456055 C400.209677,28.0558268 399.212769,29.6736654 397.902548,31.5991211 C396.592326,33.5245768 394.900432,35.8544922 392.826864,38.5888672 Z" id="Path" stroke="none" fill="#FFFFFF" fill-rule="nonzero"></path>
                    <path d="M431.972352,31.5820313 C428.668315,35.9570313 426.156108,39.0673828 424.43573,40.9130859 C422.715353,42.7587891 421.308289,43.6816406 420.214539,43.6816406 C419.348654,43.6816406 418.551128,43.3227539 417.821961,42.6049805 C417.092794,41.887207 416.528829,40.9187826 416.130066,39.699707 C415.731303,38.4806315 415.531922,37.1761068 415.531922,35.7861328 C415.531922,34.8746745 415.617371,34.054362 415.78827,33.3251953 C415.959168,32.5960286 416.283875,31.792806 416.762391,30.9155273 C417.240906,30.0382487 417.87323,29.0869141 418.659363,28.0615234 C419.445496,27.0361328 420.408224,25.8740234 421.547547,24.5751953 C422.231141,23.7776693 422.806499,23.1054688 423.273621,22.5585938 C423.740743,22.0117188 424.196473,21.6414388 424.640809,21.4477539 C425.085145,21.254069 425.808615,21.1572266 426.811219,21.1572266 C427.540385,21.1572266 428.235372,21.254069 428.89618,21.4477539 C429.556987,21.6414388 429.887391,21.8408203 429.887391,22.0458984 C429.887391,22.4560547 429.55129,23.1966146 428.87909,24.2675781 C428.206889,25.3385417 427.124533,26.6430664 425.63202,28.1811523 C424.139507,29.7192383 422.413432,31.2288411 420.453797,32.7099609 C420.020854,34.054362 419.804383,35.0797526 419.804383,35.7861328 C419.804383,36.7659505 420.180359,37.2558594 420.932313,37.2558594 C421.20575,37.2558594 421.661479,37.0222982 422.2995,36.5551758 C422.937521,36.0880534 424.014181,35.1879883 425.52948,33.8549805 C427.04478,32.5219727 428.406271,31.3427734 429.613953,30.3173828 C430.502625,29.5426432 431.533712,28.3862305 432.707215,26.8481445 C433.880717,25.3100586 434.832052,24.1536458 435.561219,23.3789063 C437.247417,21.6015625 438.398133,20.4451497 439.013367,19.909668 C439.628602,19.3741862 440.221049,19.1064453 440.790711,19.1064453 C441.337586,19.1064453 441.707866,19.2773438 441.901551,19.6191406 C442.095236,19.9609375 442.192078,20.6559245 442.192078,21.7041016 C442.192078,22.1826172 442.146505,22.569987 442.055359,22.8662109 C441.964214,23.1624349 441.776225,23.5441081 441.491395,24.0112305 C441.206564,24.4783529 440.631206,25.3385417 439.76532,26.5917969 C438.899435,27.8450521 437.874044,29.3261719 436.689148,31.0351563 C436.051128,31.9466146 435.492859,32.9435221 435.014344,34.0258789 C434.535828,35.1082357 434.29657,35.9228516 434.29657,36.4697266 C434.29657,37.6546224 434.763693,38.2470703 435.697938,38.2470703 C436.472677,38.2470703 437.372742,37.9280599 438.398133,37.2900391 C439.423523,36.6520182 440.995789,35.5013021 443.11493,33.8378906 L443.11493,36.1279297 C440.448914,38.5888672 438.477885,40.3776042 437.201844,41.4941406 C435.925802,42.6106771 434.820659,43.453776 433.886414,44.0234375 C432.952169,44.593099 432.063497,44.8779297 431.220398,44.8779297 C429.306336,44.8779297 428.349305,43.7386068 428.349305,41.4599609 C428.349305,40.5940755 428.634135,39.4262695 429.203797,37.956543 C429.773458,36.4868164 430.69631,34.3619792 431.972352,31.5820313 Z" id="Path" stroke="none" fill="#FFFFFF" fill-rule="nonzero"></path>
                    <path d="M472.631491,14.6289063 C475.024069,14.7428385 476.733053,14.9023438 477.758444,15.1074219 C478.783834,15.3125 479.29653,15.7226563 479.29653,16.3378906 C479.29653,16.6113281 479.21108,16.7993164 479.040182,16.9018555 C478.869284,17.0043945 478.590149,17.0841471 478.20278,17.1411133 C477.81541,17.1980794 477.359681,17.2721354 476.835592,17.3632813 C476.060853,17.5 474.784811,17.7677409 473.007467,18.1665039 C471.230123,18.5652669 470.250306,18.7646484 470.068014,18.7646484 C469.179342,18.7646484 468.735006,18.2063802 468.735006,17.0898438 C468.735006,16.0872396 468.945781,14.7998047 469.36733,13.2275391 C469.78888,11.6552734 470.358541,10.1912435 471.076315,8.83544922 C471.794088,7.47965495 472.551738,6.51692708 473.349264,5.94726563 C474.283509,5.28645833 475.736146,4.61995443 477.707174,3.94775391 C479.678203,3.27555339 481.888489,2.70589193 484.338034,2.23876953 C486.787578,1.77164714 489.026347,1.53808594 491.054342,1.53808594 C492.079733,1.53808594 492.837383,1.6805013 493.327291,1.96533203 C493.8172,2.25016276 494.164694,2.63753255 494.369772,3.12744141 C494.57485,3.61735026 494.916647,4.61425781 495.395163,6.11816406 C495.850892,7.50813802 496.078756,9.09179688 496.078756,10.8691406 C496.078756,13.0338542 495.577454,14.9023438 494.57485,16.4746094 C493.572246,18.046875 492.182272,19.4938151 490.404928,20.8154297 C488.627584,22.1370443 485.522929,24.1821289 481.090963,26.9506836 C476.658997,29.7192383 473.212545,31.9352214 470.751608,33.5986328 C470.523743,33.758138 470.056621,34.0600586 469.350241,34.5043945 C468.64386,34.9487305 468.017233,35.4101563 467.470358,35.8886719 C466.923483,36.3671875 466.365215,36.9824219 465.795553,37.734375 C468.848939,37.438151 473.679668,36.6064453 480.287741,35.2392578 C482.087871,34.851888 483.836732,34.4246419 485.534323,33.9575195 C487.231914,33.4903971 488.251608,33.2568359 488.593405,33.2568359 C489.163066,33.2568359 489.447897,33.5416667 489.447897,34.1113281 C489.447897,34.6354167 489.328268,35.2791341 489.08901,36.0424805 C488.849752,36.8058268 488.502259,37.5805664 488.04653,38.3666992 C487.590801,39.152832 487.055319,39.8307292 486.440084,40.4003906 C483.432272,43.203125 477.621725,44.6044922 469.008444,44.6044922 C466.775371,44.6044922 465.282858,44.2513021 464.530905,43.5449219 C464.075176,43.1347656 463.59666,42.2119141 463.095358,40.7763672 C462.594056,39.3408203 462.343405,38.28125 462.343405,37.5976563 C462.343405,36.4127604 462.924459,34.9601237 464.086569,33.2397461 C465.248678,31.5193685 466.84373,29.753418 468.871725,27.9418945 C470.89972,26.1303711 473.132793,24.5182292 475.570944,23.1054688 C482.999329,18.8671875 486.941386,16.5885417 487.397116,16.2695313 C489.060527,15.1302083 490.365052,13.9794922 491.31069,12.8173828 C492.256328,11.6552734 492.729147,10.7210286 492.729147,10.0146484 C492.729147,9.3766276 492.472799,8.88102214 491.960104,8.52783203 C491.447409,8.17464193 490.723939,7.99804688 489.789694,7.99804688 C488.308574,7.99804688 486.525534,8.26578776 484.440573,8.80126953 C482.355612,9.3367513 480.247864,10.1114909 478.11733,11.1254883 C475.986797,12.1394857 474.158183,13.3072917 472.631491,14.6289063 Z" id="Path" stroke="none" fill="#FFFFFF" fill-rule="nonzero"></path>
                    <path d="M523.022095,4.99023438 C524.093059,5.46875 524.873495,6.2491862 525.363404,7.33154297 C525.853313,8.41389974 526.098267,10.0146484 526.098267,12.1337891 C526.098267,15.3466797 525.45455,18.8102214 524.167115,22.5244141 C522.87968,26.2386068 521.07955,29.7249349 518.766724,32.9833984 C516.453899,36.241862 513.804973,38.9306641 510.819947,41.0498047 C507.470338,43.4195964 504.724569,44.6044922 502.582642,44.6044922 C500.919231,44.6044922 499.358358,44.1031901 497.900025,43.1005859 C496.441692,42.0979818 495.279582,40.6681315 494.413697,38.8110352 C493.547811,36.9539388 493.114869,34.7835286 493.114869,32.2998047 C493.114869,28.836263 494.066203,25.1961263 495.968873,21.3793945 C497.871542,17.5626628 500.286907,14.1162109 503.214966,11.0400391 C506.143026,7.96386719 509.196412,5.59407552 512.375123,3.93066406 C515.553834,2.2672526 518.282512,1.68619792 520.561158,2.1875 C522.042278,2.50651042 522.86259,3.44075521 523.022095,4.99023438 Z M515.160767,11.6894531 L516.357056,9.19433594 C515.012655,9.87792969 513.827759,10.5501302 512.802369,11.2109375 C511.776978,11.8717448 510.597779,12.8059896 509.264771,14.0136719 C507.931763,15.2213542 506.536093,16.7366536 505.077759,18.5595703 C502.707968,21.5901693 500.919231,24.5239258 499.711548,27.3608398 C498.503866,30.1977539 497.900025,32.6074219 497.900025,34.5898438 C497.900025,37.438151 498.857056,38.8623047 500.771119,38.8623047 C501.864869,38.8623047 503.431438,38.2698568 505.470826,37.0849609 C507.510214,35.9000651 509.669231,34.2708333 511.947877,32.1972656 C514.135377,30.1920573 516.055136,27.9475911 517.707154,25.4638672 C519.359172,22.9801432 520.623821,20.530599 521.501099,18.1152344 C522.378378,15.6998698 522.817017,13.6376953 522.817017,11.9287109 C522.817017,10.8349609 522.577759,9.98616536 522.099244,9.38232422 C521.620728,8.77848307 521.016887,8.4765625 520.28772,8.4765625 C519.604127,8.4765625 518.880657,8.73860677 518.11731,9.26269531 C517.353964,9.78678385 516.368449,10.5957031 515.160767,11.6894531 Z" id="Shape" stroke="none" fill="#FFFFFF" fill-rule="nonzero"></path>
                    <path d="M534.0377,14.6289063 C536.430278,14.7428385 538.139263,14.9023438 539.164653,15.1074219 C540.190044,15.3125 540.702739,15.7226563 540.702739,16.3378906 C540.702739,16.6113281 540.61729,16.7993164 540.446391,16.9018555 C540.275493,17.0043945 539.996359,17.0841471 539.608989,17.1411133 C539.221619,17.1980794 538.76589,17.2721354 538.241802,17.3632813 C537.467062,17.5 536.19102,17.7677409 534.413677,18.1665039 C532.636333,18.5652669 531.656515,18.7646484 531.474223,18.7646484 C530.585552,18.7646484 530.141216,18.2063802 530.141216,17.0898438 C530.141216,16.0872396 530.35199,14.7998047 530.77354,13.2275391 C531.195089,11.6552734 531.764751,10.1912435 532.482524,8.83544922 C533.200298,7.47965495 533.957947,6.51692708 534.755473,5.94726563 C535.689718,5.28645833 537.142355,4.61995443 539.113384,3.94775391 C541.084412,3.27555339 543.294699,2.70589193 545.744243,2.23876953 C548.193787,1.77164714 550.432557,1.53808594 552.460552,1.53808594 C553.485942,1.53808594 554.243592,1.6805013 554.733501,1.96533203 C555.22341,2.25016276 555.570903,2.63753255 555.775981,3.12744141 C555.981059,3.61735026 556.322856,4.61425781 556.801372,6.11816406 C557.257101,7.50813802 557.484966,9.09179688 557.484966,10.8691406 C557.484966,13.0338542 556.983664,14.9023438 555.981059,16.4746094 C554.978455,18.046875 553.588481,19.4938151 551.811138,20.8154297 C550.033794,22.1370443 546.929139,24.1821289 542.497173,26.9506836 C538.065207,29.7192383 534.618755,31.9352214 532.157817,33.5986328 C531.929953,33.758138 531.46283,34.0600586 530.75645,34.5043945 C530.05007,34.9487305 529.423442,35.4101563 528.876567,35.8886719 C528.329692,36.3671875 527.771424,36.9824219 527.201763,37.734375 C530.255148,37.438151 535.085877,36.6064453 541.69395,35.2392578 C543.49408,34.851888 545.242941,34.4246419 546.940532,33.9575195 C548.638123,33.4903971 549.657817,33.2568359 549.999614,33.2568359 C550.569276,33.2568359 550.854106,33.5416667 550.854106,34.1113281 C550.854106,34.6354167 550.734477,35.2791341 550.49522,36.0424805 C550.255962,36.8058268 549.908468,37.5805664 549.452739,38.3666992 C548.99701,39.152832 548.461528,39.8307292 547.846294,40.4003906 C544.838481,43.203125 539.027934,44.6044922 530.414653,44.6044922 C528.18158,44.6044922 526.689067,44.2513021 525.937114,43.5449219 C525.481385,43.1347656 525.002869,42.2119141 524.501567,40.7763672 C524.000265,39.3408203 523.749614,38.28125 523.749614,37.5976563 C523.749614,36.4127604 524.330669,34.9601237 525.492778,33.2397461 C526.654888,31.5193685 528.24994,29.753418 530.277934,27.9418945 C532.305929,26.1303711 534.539002,24.5182292 536.977153,23.1054688 C544.405539,18.8671875 548.347596,16.5885417 548.803325,16.2695313 C550.466736,15.1302083 551.771261,13.9794922 552.716899,12.8173828 C553.662537,11.6552734 554.135356,10.7210286 554.135356,10.0146484 C554.135356,9.3766276 553.879009,8.88102214 553.366313,8.52783203 C552.853618,8.17464193 552.130148,7.99804688 551.195903,7.99804688 C549.714783,7.99804688 547.931743,8.26578776 545.846782,8.80126953 C543.761821,9.3367513 541.654074,10.1114909 539.52354,11.1254883 C537.393006,12.1394857 535.564393,13.3072917 534.0377,14.6289063 Z" id="Path" stroke="none" fill="#FFFFFF" fill-rule="nonzero"></path>
                    <path d="M565.014242,13.3984375 C564.353435,13.0110677 563.886312,12.5895182 563.612875,12.1337891 C563.339437,11.6780599 563.202719,10.9261068 563.202719,9.87792969 C563.202719,8.41959635 563.966065,7.09798177 565.492758,5.91308594 C567.019451,4.7281901 569.172771,3.79964193 571.952719,3.12744141 C574.732667,2.45524089 577.843018,2.11914063 581.283773,2.11914063 C584.952393,2.11914063 587.709555,2.79134115 589.555258,4.13574219 C591.400961,5.48014323 592.323812,7.4625651 592.323812,10.0830078 C592.323812,11.632487 591.976319,13.0053711 591.281332,14.2016602 C590.586345,15.3979492 589.441326,16.4973958 587.846273,17.5 C586.06893,18.59375 580.098878,20.1888021 569.936117,22.2851563 C573.012289,22.5585938 575.621339,22.9801432 577.763266,23.5498047 C579.905193,24.1194661 581.60848,25.008138 582.873129,26.2158203 C584.137777,27.4235026 584.770102,29.0527344 584.770102,31.1035156 C584.770102,33.3365885 583.79598,35.5582682 581.847738,37.7685547 C579.899496,39.9788411 577.182211,41.7960612 573.695883,43.2202148 C570.209555,44.6443685 566.335857,45.3564453 562.074789,45.3564453 C559.021404,45.3564453 556.651612,44.8836263 554.965414,43.9379883 C553.279216,42.9923503 552.436117,41.7903646 552.436117,40.3320313 C552.436117,39.4889323 552.709555,38.5945638 553.25643,37.6489258 C553.803305,36.7032878 554.452719,35.8886719 555.204672,35.2050781 C555.956625,34.5214844 556.594646,34.1796875 557.118734,34.1796875 C557.437745,34.1796875 557.59725,34.2936198 557.59725,34.5214844 C557.59725,34.6809896 557.483318,34.9886068 557.255453,35.4443359 C557.027589,35.6722005 556.913656,35.9228516 556.913656,36.1962891 C556.913656,36.7431641 557.443441,37.2102865 558.503012,37.5976563 C559.562582,37.985026 560.924073,38.1787109 562.587484,38.1787109 C564.86613,38.1787109 567.076417,37.9223633 569.218344,37.409668 C571.360271,36.8969727 573.28003,36.2247721 574.977621,35.3930664 C576.675212,34.5613607 578.019613,33.6783854 579.010824,32.7441406 C580.002035,31.8098958 580.497641,30.9554036 580.497641,30.1806641 C580.497641,28.6083984 579.48934,27.5374349 577.472738,26.9677734 C575.456137,26.398112 572.408448,26.1132813 568.329672,26.1132813 C566.939698,26.1132813 565.600993,26.2329102 564.313559,26.472168 C563.026124,26.7114258 562.405193,26.8310547 562.450766,26.8310547 C562.108969,26.8310547 561.93807,26.546224 561.93807,25.9765625 C561.93807,25.0878906 562.183025,23.9485677 562.672934,22.5585938 C563.162842,21.1686198 563.738201,20.2571615 564.399008,19.8242188 C564.809164,19.5507813 566.39852,19.1748047 569.167074,18.6962891 C571.935629,18.2177734 574.316814,17.7677409 576.310629,17.3461914 C578.304444,16.9246419 580.679932,16.2125651 583.437094,15.2099609 C585.168865,14.5491536 586.467693,13.7801107 587.333578,12.902832 C588.199464,12.0255534 588.632406,11.233724 588.632406,10.5273438 C588.632406,8.75 586.433513,7.86132813 582.035727,7.86132813 C579.893799,7.86132813 577.808839,7.99235026 575.780844,8.25439453 C573.752849,8.5164388 572.163493,8.83544922 571.012777,9.21142578 C569.862061,9.58740234 569.286703,9.94628906 569.286703,10.2880859 C569.286703,10.5843099 569.406332,10.8235677 569.64559,11.0058594 C569.884848,11.188151 570.124105,11.3248698 570.363363,11.4160156 C570.602621,11.5071615 570.995687,11.6438802 571.542562,11.8261719 C571.679281,11.8717448 571.816,11.9685872 571.952719,12.1166992 C572.089437,12.2648112 572.157797,12.430013 572.157797,12.6123047 C572.157797,13.2503255 569.776612,13.5123698 565.014242,13.3984375 Z" id="Path" stroke="none" fill="#FFFFFF" fill-rule="nonzero"></path>
                    <path d="M57.0659896,73.1943521 L68.2118166,93.4619655 L92.9946795,96.6937764 L75.0666825,112.376898 L79.3139843,134.600704 L57.0659896,124.103878 L34.817995,134.600704 L39.0652968,112.376898 L21.1372997,96.6937764 L45.9201627,93.4619655 L57.0659896,73.1943521 Z" id="Star-Copy" stroke="#979797" stroke-width="1" fill="#D8D8D8" fill-rule="evenodd" transform="translate(57.065990, 107.156736) rotate(45.000000) translate(-57.065990, -107.156736) "></path>
                    <path d="M820.704158,214.576874 L831.868618,232.558199 L856.519577,235.405425 L838.694587,249.216379 L842.937064,268.877964 L820.704158,259.587081 L798.471251,268.877964 L802.713729,249.216379 L784.888739,235.405425 L809.539698,232.558199 L820.704158,214.576874 Z" id="Star-Copy-2" stroke="#979797" stroke-width="1" fill="#D8D8D8" fill-rule="evenodd" transform="translate(820.704158, 244.628983) rotate(12.000000) translate(-820.704158, -244.628983) "></path>
                </g>
            </g>
        </g>
        <g id="inforesult">
            <rect id="area" stroke="#979797" fill="#D8D8D8" opacity="0" x="0.5" y="0.5" width="1199" height="629"></rect>
            <rect id="info" stroke="#979797" fill="#D8D8D8" opacity="0" x="374.5" y="96.5" width="451" height="440"></rect>
            <text id="info" font-family="Nunito-Regular, Nunito" font-size="48" font-weight="normal" letter-spacing="0.03012" fill="#591D1D">
                <tspan x="416.431273" y="146">Type som ething </tspan>
                <tspan x="497.705654" y="212">das dsad</tspan>
                <tspan x="397.156589" y="278">sd asd asd asddas </tspan>
                <tspan x="402.517273" y="344">dasd da s das das </tspan>
                <tspan x="428.927115" y="410">dasdasd asd as</tspan>
            </text>
        </g>
    </g>
</svg>